<svg width="931" height="883" viewBox="0 0 931 883" fill="none" xmlns="http://www.w3.org/2000/svg">
<path d="M431.98 4.26489C431.98 10.9316 433.58 12.5316 438.114 11.0649C441.047 9.99823 441.847 8.93156 441.58 6.53156C441.047 0.931559 440.114 -0.0017734 435.98 -0.0017734C432.38 -0.0017734 431.98 0.398226 431.98 4.26489Z" fill="black"/>
<path d="M405.98 3.9967C404.78 5.9967 406.647 14.3967 408.78 16.13C409.847 16.93 412.113 17.1967 413.98 16.7967C416.78 16.13 417.313 15.1967 417.313 11.4634C417.313 4.26336 416.247 2.66336 411.313 2.66336C408.78 2.66336 406.38 3.1967 405.98 3.9967Z" fill="black"/>
<path d="M862.647 6.66535C848.514 10.132 816.514 23.0654 792.78 34.932C777.98 42.3987 743.447 63.1987 726.114 75.1987C712.38 84.6654 711.847 85.332 714.914 86.532C716.78 87.1987 719.847 89.5987 721.714 91.8654L725.18 96.132L738.247 88.532C789.847 58.7987 821.447 45.4654 842.247 44.932C853.314 44.6654 857.714 46.932 861.847 55.1987C864.247 59.9987 864.247 60.6654 862.247 67.9987C859.047 79.0654 849.847 98.2654 838.114 117.732C825.847 138.399 810.914 160.799 805.18 167.199L801.18 171.865L803.98 174.932C805.58 176.665 808.647 181.465 810.78 185.599C812.914 189.865 815.314 193.332 816.114 193.332C818.247 193.332 825.047 185.732 831.18 176.532C834.114 172.265 838.38 166.265 840.78 163.332C848.914 152.932 878.247 109.732 889.58 91.332C895.98 81.0654 904.247 66.2654 908.114 58.2654C913.98 45.9987 915.18 42.532 915.714 34.2654C916.647 18.7987 910.914 10.132 896.914 5.99869C887.98 3.33202 875.047 3.59869 862.647 6.66535Z" fill="black"/>
<path d="M385.314 6.53276C382.647 7.19943 381.847 8.39943 381.58 11.9994C381.314 14.5328 381.98 17.7328 383.047 19.1994C384.647 21.4661 385.447 21.4661 389.847 19.9994C394.647 18.5328 394.914 18.1328 394.114 14.1328C392.914 8.53276 389.447 5.46609 385.314 6.53276Z" fill="black"/>
<path d="M359.714 12.3975C355.047 14.2641 354.647 19.7308 359.047 24.6641C361.847 27.9975 362.114 28.1308 366.381 25.9975C371.447 23.4641 371.447 22.9308 367.981 15.9975C365.047 10.2641 365.047 10.2641 359.714 12.3975Z" fill="black"/>
<path d="M335.047 20.2655C331.314 21.9988 331.314 22.7988 334.647 29.3321C338.114 36.1321 338.781 36.3988 343.181 32.9321L346.914 29.9988L344.647 24.2655C342.247 18.3988 340.381 17.5988 335.047 20.2655Z" fill="black"/>
<path d="M311.714 28.7987C307.181 31.1987 307.047 32.2654 311.314 39.5987L314.781 45.332L318.647 42.3987C323.314 38.932 323.581 36.932 319.981 30.932C317.047 26.132 316.647 25.9987 311.714 28.7987Z" fill="black"/>
<path d="M287.981 39.7312C285.048 41.9978 284.915 42.6645 286.515 46.3978C287.448 48.6645 289.181 51.3312 290.381 52.3978C292.381 54.2645 293.048 54.1312 296.648 51.1978L300.648 47.9978L297.981 43.0645C294.781 37.1978 292.248 36.2645 287.981 39.7312Z" fill="black"/>
<path d="M75.9811 50.9325C70.9145 52.9325 66.1145 56.2658 60.3811 61.9992C50.7811 71.5992 48.6478 77.3325 49.7145 90.9325C50.7811 106.799 61.9811 119.333 78.2478 122.799C96.3811 126.533 114.114 116.933 122.248 99.0658C125.181 92.7992 125.581 90.2658 125.048 82.6658C123.181 57.0658 99.7145 41.8658 75.9811 50.9325Z" fill="black"/>
<path d="M423.313 50.6632C388.246 55.5966 367.18 60.9299 335.98 72.9299C274.78 96.3966 219.846 133.463 180.38 177.997C127.846 237.063 88.6464 321.997 80.6464 393.997C73.1797 461.463 79.9797 521.863 101.446 574.797C113.713 605.597 133.046 641.197 151.18 666.663C159.98 679.063 178.113 702.13 179.98 703.33C180.646 703.73 182.513 703.33 183.98 702.397C191.713 697.597 257.313 621.597 278.113 593.33C304.113 557.997 343.846 490.663 365.18 446.13C370.246 435.463 376.646 423.063 379.446 418.53C382.113 414.13 390.113 398.93 397.313 384.93C431.446 317.597 434.246 312.13 469.846 248.263C484.78 221.463 494.646 204.263 509.446 179.197C515.046 169.597 521.18 158.797 523.046 155.197C524.913 151.597 531.313 140.53 537.313 130.663C543.313 120.797 550.246 108.263 552.913 102.663C558.38 91.1966 565.046 80.9299 574.78 69.3299L581.446 61.3299L577.713 59.8632C550.113 49.3299 468.113 44.3966 423.313 50.6632ZM357.98 94.6632C360.513 98.6632 355.98 101.863 322.913 119.463C284.246 139.997 269.18 149.197 250.113 163.863C242.78 169.463 233.713 176.397 229.846 179.33C225.98 182.263 217.98 188.93 211.98 193.997C205.98 199.197 200.38 203.73 199.446 204.263C198.513 204.797 195.58 207.863 192.78 211.197C188.513 216.397 188.246 217.33 189.98 219.063C191.713 220.93 191.313 221.463 185.846 223.997C179.046 227.33 173.58 234.53 172.38 241.597C171.446 247.863 175.313 251.997 181.98 251.997C188.646 251.997 198.38 243.063 199.446 235.863C200.913 226.93 205.313 229.863 205.313 239.73C205.313 247.197 200.38 254.797 193.313 258.263C184.513 262.797 179.18 262.397 173.846 256.53C171.313 253.997 169.313 251.197 169.313 250.53C169.313 248.13 165.713 249.33 162.513 252.797C160.78 254.663 157.713 257.063 155.58 258.13C150.913 260.663 149.846 258.53 151.98 250.797C157.313 230.663 177.846 200.797 204.113 174.797C216.113 162.93 251.046 136.53 266.513 127.597C279.446 120.13 308.113 106.13 321.58 100.797C336.78 94.7966 356.113 91.5966 357.98 94.6632ZM376.646 139.863C375.846 142.663 371.046 146.13 369.713 144.93C369.446 144.53 370.513 142.13 372.246 139.463C375.446 134.663 378.246 134.93 376.646 139.863ZM458.913 142.263C461.846 144.93 461.98 149.063 459.046 152.263C454.38 157.463 445.313 152.93 447.313 146.397C449.446 139.73 454.246 137.997 458.913 142.263ZM302.38 252.93C305.713 254.53 307.313 256.263 307.446 258.263C307.58 261.197 307.18 261.33 296.78 261.33C278.513 261.463 267.446 265.33 255.846 275.73C243.58 286.797 237.18 299.597 234.513 318.263C232.913 329.33 234.38 341.73 238.78 354.263C241.58 362.397 240.246 363.33 234.513 357.197C228.646 350.93 223.846 339.597 222.246 328.663C220.913 319.863 221.18 317.063 223.713 305.597C227.713 288.13 232.113 279.863 243.313 268.53C253.18 258.797 259.713 254.797 271.98 251.33C281.046 248.797 295.58 249.597 302.38 252.93ZM345.98 318.13C345.98 332.53 345.846 333.063 340.78 343.33C337.446 349.997 332.913 356.53 328.646 360.797C316.38 373.063 292.38 382.797 278.78 380.93C273.446 380.263 263.98 376.263 263.98 374.797C263.98 374.397 269.58 372.663 276.38 370.93C302.913 364.397 321.18 351.863 329.313 334.397C331.446 329.73 334.513 319.33 336.113 311.33C337.713 303.197 339.713 296.263 340.513 295.73C343.713 293.597 345.98 302.93 345.98 318.13ZM171.713 446.263C171.446 447.73 169.98 448.663 168.38 448.663C166.646 448.663 164.513 449.863 163.446 451.33C162.246 452.797 161.313 453.33 161.313 452.397C161.313 451.597 159.18 453.063 156.38 455.73C153.18 459.063 151.313 460.13 150.913 458.93C150.113 456.397 157.046 449.463 163.313 446.663C170.113 443.463 172.246 443.463 171.713 446.263ZM180.646 445.33C180.246 445.997 178.913 446.663 177.846 446.663C176.78 446.663 175.98 445.997 175.98 445.33C175.98 444.53 177.18 443.997 178.78 443.997C180.246 443.997 181.046 444.53 180.646 445.33ZM238.646 486.663C238.646 488.663 232.246 492.397 230.113 491.597C228.913 491.063 225.18 493.997 220.113 499.463C211.713 508.397 209.98 508.663 214.78 500.13C217.713 494.93 225.98 488.263 230.513 487.597C231.98 487.33 233.713 486.797 234.113 486.263C235.58 484.93 238.646 485.197 238.646 486.663ZM255.446 580.663C253.18 584.13 249.313 585.197 249.313 582.397C249.313 581.463 250.913 579.063 253.046 576.93C255.846 573.863 256.78 573.597 257.046 575.33C257.313 576.53 256.513 578.93 255.446 580.663Z" fill="black"/>
<path d="M265.447 51.8649C261.98 55.3316 261.98 56.9316 265.314 62.2649C268.514 67.4649 268.914 67.5983 273.847 63.4649L277.847 60.3983L275.047 55.1983C271.847 49.0649 269.18 48.1316 265.447 51.8649Z" fill="black"/>
<path d="M244.914 63.9995C240.381 67.5995 240.114 73.0661 244.514 77.1995L247.714 80.1328L251.314 77.0661C255.181 73.5995 255.181 69.8661 250.914 64.2661L248.514 61.1995L244.914 63.9995Z" fill="black"/>
<path d="M595.447 77.331C584.647 87.5977 579.447 94.6644 570.647 111.331C567.58 117.198 562.38 126.531 559.18 132.131C555.98 137.731 553.314 142.531 553.314 143.064C553.314 144.531 534.247 178.131 529.98 183.998C527.58 187.331 523.98 193.331 521.98 197.331C519.847 201.331 512.78 213.464 506.38 224.264C499.98 234.931 494.647 244.264 494.647 244.931C494.647 245.598 503.98 246.131 515.714 246.131C533.447 246.264 537.847 246.664 544.647 248.931C551.58 251.331 552.114 251.731 548.38 251.864C546.114 251.998 543.047 252.398 541.714 252.931C539.714 253.731 539.98 254.131 543.314 254.931C545.58 255.464 542.78 255.464 537.314 254.931C526.114 253.864 510.78 253.998 496.514 255.331L486.914 256.131L479.447 270.798C471.18 286.531 471.18 286.931 481.314 283.998C499.047 278.664 512.114 277.064 547.314 275.998C568.78 275.331 585.847 275.331 589.714 276.131C602.38 278.531 624.514 290.531 640.247 303.598C647.714 309.731 666.247 333.198 672.647 344.664C678.647 355.464 684.914 372.798 686.647 383.464C688.247 393.064 688.647 420.798 687.18 424.398C685.98 427.598 690.114 427.331 691.847 424.131C692.647 422.798 694.247 415.998 695.447 409.064C700.514 380.398 694.514 352.931 676.647 321.998C670.914 312.131 650.914 284.131 645.447 278.264C638.38 270.798 620.38 259.198 606.247 253.064C590.914 246.531 585.314 243.598 585.314 242.531C585.314 241.998 586.247 240.931 587.314 239.998C591.447 236.531 613.714 244.264 632.647 255.731C649.847 266.131 653.98 269.731 664.514 283.731C688.78 315.864 695.447 327.864 704.114 355.331C708.914 370.398 709.714 374.798 710.247 388.664C711.314 412.931 707.847 427.998 695.314 453.998C691.447 461.998 687.714 470.131 687.314 471.998C685.714 477.598 697.714 465.064 706.647 451.864C715.847 438.131 721.847 423.198 724.647 407.331C727.18 392.664 727.18 384.664 724.647 369.864C721.047 349.464 716.38 336.664 704.514 315.064C698.38 303.864 693.314 293.731 693.314 292.664C693.314 289.731 696.914 288.664 699.447 290.798C700.514 291.731 705.447 298.398 710.247 305.731C728.647 333.598 735.98 356.131 736.914 388.131C737.447 404.931 737.18 409.064 734.647 419.064C725.58 455.731 705.047 484.798 677.847 499.864C657.847 511.064 655.714 512.264 656.247 512.798C657.58 513.998 674.114 510.264 683.98 506.531C700.647 500.131 715.714 487.864 730.114 468.798C739.847 455.998 745.58 444.264 751.047 426.664C762.647 388.798 758.114 350.531 737.18 310.798C726.914 291.331 722.647 285.464 708.247 271.864C693.314 257.731 685.18 251.331 676.78 247.064C673.047 245.198 663.047 239.864 654.647 235.198C617.714 214.798 592.38 208.131 549.314 207.864C534.114 207.731 528.78 208.131 527.047 209.464C525.58 210.798 525.18 210.798 525.847 209.598C526.38 208.798 526.114 207.998 525.447 207.998C524.647 207.998 523.98 207.464 523.98 206.798C523.98 203.064 590.247 202.264 603.98 205.864C628.38 212.264 647.447 219.864 659.714 228.264C662.914 230.531 670.78 234.664 677.047 237.731C691.58 244.398 705.314 254.931 720.247 270.398C733.58 284.131 741.714 296.131 749.98 313.731C757.447 329.464 760.38 338.798 764.78 359.731C767.847 374.531 768.114 378.798 767.58 393.998C766.78 416.531 760.114 443.731 752.247 457.464C731.314 493.464 704.514 516.398 673.314 524.931C666.514 526.798 659.58 527.331 641.58 527.331C626.247 527.331 618.647 527.864 618.647 528.798C618.647 531.331 627.98 534.664 640.914 536.931C651.847 538.798 656.114 538.798 671.18 537.464C686.114 536.131 690.514 535.064 701.98 530.531C739.447 515.864 775.314 471.331 787.314 424.798C792.38 404.531 792.914 375.064 788.514 351.864C777.714 295.064 748.78 249.864 701.714 216.264C693.047 210.131 679.58 201.864 671.714 197.731C663.714 193.598 657.447 189.998 657.714 189.731C658.514 189.064 673.447 194.264 683.314 198.664C713.58 212.264 750.514 245.464 771.314 277.998C781.447 293.998 795.047 331.198 798.914 353.731C801.447 368.531 801.047 411.598 798.247 425.064C791.447 456.931 776.38 484.398 750.78 510.931C736.78 525.598 725.98 533.331 708.514 541.331C686.114 551.731 666.38 553.864 636.514 549.464C626.114 547.864 615.047 545.731 611.847 544.664C604.38 541.998 589.98 533.464 582.647 527.331C577.18 522.798 573.314 521.331 573.314 523.864C573.314 524.664 577.714 529.598 583.047 535.198C591.314 543.598 594.78 546.131 606.647 551.864C655.98 575.598 704.38 572.798 749.314 543.731C761.447 535.864 781.714 515.064 792.647 499.464C809.18 475.464 818.38 455.598 825.047 429.331C828.38 416.264 828.647 413.331 828.647 386.664C828.647 360.931 827.714 347.998 823.98 317.998C823.314 312.931 823.047 308.531 823.314 308.264C824.78 306.798 828.114 317.331 829.847 329.198C831.047 336.798 832.247 343.464 832.647 344.131C833.18 344.798 834.647 351.198 835.98 358.264C838.114 369.064 838.514 375.864 838.247 396.664C837.847 420.131 837.447 423.064 833.58 437.598C828.114 458.131 821.847 473.331 811.847 490.531C801.18 508.664 794.514 517.464 778.114 534.398C751.58 561.731 720.78 576.531 683.047 580.131C665.98 581.731 647.047 579.731 624.78 574.131C610.247 570.398 601.98 566.398 587.314 556.264C567.314 542.264 553.714 525.998 543.314 503.598C538.38 493.198 537.447 494.531 539.98 508.131C543.58 527.464 555.047 546.398 572.38 561.598C591.714 578.798 604.114 585.998 626.647 593.331C648.247 600.398 658.647 601.998 681.98 601.864C701.314 601.864 704.78 601.464 718.647 597.731C781.714 581.064 829.98 534.264 857.314 462.931C865.714 441.064 864.38 457.331 855.714 481.998C846.247 509.331 836.647 525.464 815.18 550.798C804.247 563.598 784.114 580.531 769.447 589.331C751.447 599.998 724.114 610.264 705.314 613.198C689.314 615.864 665.714 615.064 647.98 611.198C583.047 597.598 539.314 560.931 525.047 507.998C522.914 500.264 522.114 491.998 521.447 471.998C520.647 446.531 520.647 446.131 518.38 450.131C517.18 452.398 514.78 460.531 513.18 468.131C506.247 501.731 515.18 539.198 537.047 568.664C552.38 589.331 570.914 604.398 599.98 619.731C625.714 633.464 650.514 638.798 688.647 639.064C709.714 639.198 714.514 638.798 728.78 635.731C767.18 627.464 796.78 611.864 824.38 585.464C830.78 579.331 836.38 574.531 836.78 575.064C838.247 576.531 833.18 583.998 823.18 594.531C785.58 634.531 729.314 654.131 665.447 649.464C641.447 647.731 623.847 643.064 599.98 632.264C567.314 617.198 540.514 595.731 525.047 571.864C511.98 551.731 507.447 541.198 502.114 518.664C497.447 498.931 496.914 491.731 498.647 476.664C501.98 449.064 511.18 426.264 525.847 409.331C530.647 403.864 534.247 399.198 533.98 398.931C531.98 396.931 508.38 417.064 501.98 426.264C496.647 433.864 486.247 457.198 483.98 467.064C471.714 517.198 490.78 575.598 533.047 617.064C561.047 644.531 601.847 665.731 644.514 674.931C655.847 677.331 662.114 677.731 683.314 677.731C698.38 677.598 714.78 676.664 723.98 675.464C743.847 672.664 743.58 672.664 740.78 675.864C735.314 681.864 694.247 687.598 665.98 686.264C641.58 685.198 605.18 675.598 583.314 664.264C535.047 639.598 508.247 613.598 486.78 570.931C477.58 552.664 472.647 537.198 469.847 518.664C463.18 472.798 476.38 432.264 508.514 400.664C523.847 385.464 534.914 379.731 561.98 372.398C568.647 370.664 548.78 370.264 538.647 371.998C511.847 376.531 493.847 388.531 472.647 415.998C453.98 440.264 443.847 474.798 445.714 507.998C448.647 559.331 470.38 606.798 509.18 647.064C523.58 661.998 539.447 673.064 565.98 686.798C586.114 697.198 600.247 702.398 625.714 708.664C635.714 711.198 645.314 713.998 647.047 714.931C649.714 716.531 649.447 716.664 642.914 717.064C628.38 717.864 597.18 709.731 570.647 698.131C532.78 681.598 503.047 658.531 480.114 628.131C467.98 611.864 452.647 583.864 446.247 565.998C437.58 541.598 432.514 510.798 433.847 490.664C436.38 454.398 445.98 429.731 468.114 402.131C481.98 384.798 506.38 367.598 527.047 360.664C540.647 356.131 575.447 353.464 589.047 355.998C593.98 356.798 599.847 357.864 601.98 358.264L605.98 359.064L602.914 355.598C593.847 345.864 571.58 341.198 545.714 343.864C496.38 348.664 465.18 367.598 436.514 409.998C423.18 429.731 422.514 430.931 415.047 451.864C410.38 465.064 408.78 471.864 407.58 483.598C404.514 515.198 411.714 558.131 426.114 593.331C436.114 617.998 437.447 621.598 436.914 623.064C436.247 625.198 425.847 608.264 418.914 593.331C395.447 543.331 390.514 481.864 406.514 440.664C411.714 427.198 431.847 394.131 441.314 383.331C471.714 348.931 507.98 333.064 555.98 333.331C576.114 333.464 589.714 335.198 598.78 338.664C605.98 341.331 620.914 351.464 628.914 359.198C632.114 362.131 635.047 364.131 635.447 363.598C636.647 362.398 630.114 350.131 624.647 343.331C622.247 340.398 616.514 335.731 611.847 332.931C597.714 324.531 589.58 322.798 558.78 321.198C507.447 318.398 497.98 320.131 456.914 339.864L439.98 348.131L424.38 379.598C415.847 396.931 405.847 415.998 402.38 421.864C398.78 427.731 393.047 438.531 389.58 445.864C378.247 470.131 365.447 494.264 355.18 511.598C337.18 541.731 319.847 569.464 314.114 577.331C311.18 581.598 303.714 591.864 297.714 600.131C287.98 613.864 280.247 623.331 244.247 666.131C222.914 691.464 187.447 727.198 167.714 743.064C145.447 760.931 110.914 782.531 89.7138 791.598C77.5805 796.798 73.5805 797.864 64.5138 798.398C54.7805 798.931 53.4471 798.664 50.1138 795.864C45.1805 791.464 43.5805 783.598 45.3138 772.264C46.9138 762.931 60.2471 733.198 72.9138 711.331C77.7138 703.064 102.114 665.998 109.847 655.331C110.78 654.131 109.714 651.864 106.78 648.131C104.38 645.198 101.98 642.664 101.314 642.664C98.1138 642.664 70.2471 678.531 51.7138 706.664C29.1805 740.931 9.71379 777.331 3.31379 797.731C-0.81954 810.531 -1.08621 823.464 2.51379 831.464C11.0471 850.131 33.5805 849.331 83.0471 828.398C100.38 821.064 140.914 797.064 158.38 783.731C182.38 765.331 216.247 732.531 235.047 709.331C242.514 700.131 252.247 688.398 256.647 683.331C261.047 678.131 271.58 665.598 279.98 655.331C288.247 645.064 298.914 632.131 303.447 626.531C308.114 620.931 316.514 609.464 322.114 601.198C327.847 592.931 332.78 586.931 333.047 587.731C333.314 588.664 330.647 594.531 327.18 600.931C317.58 618.531 308.78 631.198 265.847 688.664C259.847 696.664 253.98 705.331 252.78 707.731C251.58 709.998 245.18 719.198 238.514 728.131C231.847 736.931 226.914 744.664 227.447 745.331C228.114 745.864 235.314 750.798 243.314 756.264C302.914 796.531 370.647 823.464 431.314 830.931C449.58 833.064 509.98 833.064 528.647 830.931C580.247 824.798 614.914 814.931 656.78 794.798C716.38 765.864 762.38 728.931 801.98 677.998C829.714 642.131 852.114 598.664 864.514 555.998C876.38 515.331 879.714 494.931 880.914 454.664C882.38 404.264 874.114 349.464 858.514 307.331C842.78 264.398 808.514 207.598 779.314 175.998C757.58 152.398 716.647 120.264 686.114 102.664C660.647 87.9977 623.447 71.4644 609.714 68.6644C605.847 67.8644 604.647 68.6644 595.447 77.331ZM639.714 114.931C641.847 118.531 641.847 118.798 638.514 122.131C635.58 125.064 634.514 125.331 632.114 124.131C628.114 121.998 627.047 116.531 630.114 113.198C633.18 109.731 636.914 110.398 639.714 114.931ZM592.514 122.531C595.714 125.998 594.78 130.531 590.38 133.731C586.78 136.398 586.647 136.398 583.847 133.864C578.647 129.198 578.114 126.798 581.447 123.198C585.047 119.331 589.447 119.064 592.514 122.531ZM687.047 140.264C688.78 142.798 687.18 149.198 684.647 150.264C679.58 152.131 676.78 144.264 680.914 139.731C683.314 136.931 685.18 137.064 687.047 140.264ZM396.647 652.131C403.98 658.798 404.247 661.998 398.514 670.931C393.047 679.331 390.114 681.331 382.78 681.331C377.58 681.331 376.247 680.664 371.714 675.998C367.314 671.198 366.647 669.731 366.647 664.131C366.647 658.131 367.18 657.198 372.647 652.131C377.847 647.464 379.447 646.664 384.647 646.664C389.847 646.664 391.447 647.464 396.647 652.131ZM471.714 703.064C472.514 703.998 473.98 707.198 474.914 709.998C476.514 714.931 477.18 715.464 482.914 716.398C488.38 717.464 489.314 718.131 489.98 721.464C491.18 726.664 490.114 727.864 483.714 728.798C479.447 729.598 477.714 730.664 475.714 734.264C472.78 739.198 469.18 741.731 466.38 740.664C465.447 740.264 463.447 737.731 461.98 734.931C459.58 730.398 458.647 729.864 451.58 728.798L443.847 727.598L444.247 722.798C444.647 717.998 444.78 717.998 452.38 716.798C459.847 715.598 459.98 715.464 461.447 710.131C462.247 707.064 463.58 703.864 464.247 702.931C466.114 700.798 469.98 700.931 471.714 703.064ZM722.914 712.931C725.58 715.331 726.114 719.331 723.714 720.798C721.847 721.998 718.647 717.731 718.647 713.731C718.647 710.131 719.58 709.864 722.914 712.931ZM607.314 749.731C608.78 752.398 610.914 754.931 611.98 755.198C613.047 755.464 615.714 756.131 617.714 756.531C620.78 757.331 621.447 757.998 621.047 760.931C620.78 763.598 619.58 764.798 615.98 765.998C612.914 766.931 610.514 768.931 609.047 771.998C607.847 774.398 606.247 776.931 605.58 777.598C603.18 779.998 598.78 777.331 597.314 772.664C596.114 769.198 594.914 767.998 591.58 767.331C583.18 765.598 582.647 765.331 582.647 761.331C582.647 757.864 583.314 757.198 588.914 755.598C593.98 754.131 595.314 753.064 596.247 749.998C598.247 742.398 603.314 742.264 607.314 749.731ZM384.514 761.598C386.247 764.398 384.247 768.398 380.914 769.064C378.247 769.598 375.314 763.864 376.514 760.664C377.58 757.864 382.514 758.531 384.514 761.598ZM529.58 775.598C532.38 778.131 532.647 781.064 530.114 784.264C527.447 787.864 524.247 787.198 521.98 782.664C520.247 779.464 520.247 778.264 521.58 775.998C523.714 772.798 526.247 772.531 529.58 775.598Z" fill="black"/>
<path d="M222.915 79.0633C219.048 83.1966 219.181 86.7966 223.315 90.6633L226.781 93.8633L230.381 90.2633L233.981 86.6633L231.315 81.7299C227.981 75.5966 226.515 75.1966 222.915 79.0633Z" fill="black"/>
<path d="M200.781 94.9313C197.847 99.0646 198.114 101.731 201.981 105.331C205.714 108.798 208.114 108.265 211.447 103.198C213.047 100.931 212.914 99.9979 210.647 96.2646C207.581 91.1979 203.714 90.6646 200.781 94.9313Z" fill="black"/>
<path d="M181.58 108.265C177.58 112.665 177.847 116.532 182.38 119.865C185.847 122.265 186.513 122.398 189.047 120.532C192.913 117.865 192.78 114.265 188.247 109.198L184.647 105.198L181.58 108.265Z" fill="black"/>
<path d="M162.781 127.465C159.181 132.132 159.314 133.465 163.714 137.732L167.448 141.332L171.848 136.932L176.114 132.399L172.114 128.265C167.448 123.065 166.248 123.065 162.781 127.465Z" fill="black"/>
<path d="M146.114 146.797C141.714 150.263 141.714 153.73 145.98 156.53C149.047 158.53 149.447 158.53 152.914 155.463C156.247 152.53 156.38 151.997 154.78 148.93C152.247 144.13 150.114 143.73 146.114 146.797Z" fill="black"/>
<path d="M126.78 168.799C123.714 172.666 124.514 174.799 129.714 177.466C134.78 180.266 141.047 170.799 136.38 167.333C132.78 164.533 129.847 164.933 126.78 168.799Z" fill="black"/>
<path d="M885.447 175.465C882.38 178.932 879.98 183.065 879.98 184.665C879.98 188.132 889.447 197.332 892.78 197.332C895.447 197.332 907.314 186.665 907.314 184.399C907.314 182.265 894.78 169.332 892.647 169.332C891.714 169.332 888.38 172.132 885.447 175.465Z" fill="black"/>
<path d="M110.648 190.931C107.581 195.998 107.715 197.464 111.981 199.598C115.848 201.598 118.248 200.531 120.648 195.998C122.248 192.931 122.248 191.998 120.515 189.464C117.581 185.331 113.715 185.998 110.648 190.931Z" fill="black"/>
<path d="M97.5813 209.6C96.9146 210.533 95.8479 212.666 95.4479 214.266C94.3813 217.6 98.2479 220.4 103.048 219.733C106.781 219.2 109.181 213.066 106.648 210.133C104.648 207.6 99.4479 207.333 97.5813 209.6Z" fill="black"/>
<path d="M86.3805 228.933C82.6472 233.199 82.2472 237.066 85.3139 238.666C89.1805 240.666 93.5805 239.466 95.8472 235.733C97.4472 233.066 97.3139 232.533 94.1139 229.733C89.8472 225.999 89.0472 225.999 86.3805 228.933Z" fill="black"/>
<path d="M73.0465 256.533C71.1798 260.667 72.5131 264 75.8465 264C79.0465 264 83.3131 258.267 82.1131 255.333C80.9131 252 74.7798 252.933 73.0465 256.533Z" fill="black"/>
<path d="M61.7138 284.266C55.5805 291.066 54.3805 296.666 58.9138 297.733C62.7805 298.8 65.0471 296.8 66.7805 290.266C67.8471 286 67.8471 284.533 66.3805 283.066C64.7805 281.6 64.1138 281.733 61.7138 284.266Z" fill="black"/>
<path d="M497.313 290.132C466.647 296.265 466.513 296.399 462.513 302.932C457.98 310.132 447.713 330.799 448.247 331.332C448.513 331.599 453.18 329.732 458.647 327.065C474.78 319.465 498.513 311.199 509.313 309.199C523.047 306.799 586.513 306.665 594.247 309.065C603.98 311.999 626.78 328.399 638.78 341.065C647.713 350.532 651.98 356.532 659.98 371.065C665.447 381.065 670.38 389.332 670.78 389.332C672.513 389.332 668.78 371.999 664.78 361.199C652.78 328.932 623.713 300.665 589.98 288.532C584.247 286.532 578.647 286.132 550.647 285.999C519.18 285.865 517.313 285.999 497.313 290.132Z" fill="black"/>
<path d="M45.4478 318.798C43.4478 324.665 43.5811 325.198 47.4478 326.665C51.5811 328.265 55.7145 326.398 57.1811 322.265C58.9145 317.731 56.5145 314.665 51.4478 314.665C47.5811 314.665 46.6478 315.331 45.4478 318.798Z" fill="black"/>
<path d="M37.9806 344.399C37.4473 346.132 37.3139 349.465 37.5806 351.465C37.9806 354.799 38.6473 355.332 42.5139 355.732C47.5806 356.266 49.3139 354.532 49.3139 349.199C49.3139 345.199 47.4473 343.199 42.3806 341.999C39.3139 341.199 38.6473 341.599 37.9806 344.399Z" fill="black"/>
<path d="M910.114 347.598C909.58 351.198 910.114 360.931 911.18 369.331C915.447 401.198 916.38 424.398 914.78 458.664C914.114 476.664 912.914 494.664 912.114 498.664C911.447 502.664 910.247 510.531 909.314 515.998C906.914 531.598 896.514 569.064 890.114 585.731C867.047 645.198 831.847 698.664 784.647 745.998C765.98 764.798 755.714 773.464 732.647 790.264C707.714 808.398 671.98 828.398 654.647 833.998C650.647 835.331 645.047 837.464 642.38 838.798C631.047 844.531 588.114 857.198 563.314 861.998C545.314 865.598 536.914 866.398 503.447 867.464L473.047 868.398L473.714 873.598C474.114 876.531 474.78 879.331 475.314 879.731C476.38 880.798 516.78 880.264 520.38 879.198C521.58 878.798 522.647 877.464 522.647 876.264C522.78 874.131 522.914 874.131 524.514 876.264C526.78 879.331 538.247 879.464 545.98 876.664C548.914 875.598 555.047 874.664 559.58 874.664C564.647 874.664 570.647 873.598 574.78 871.998C578.647 870.664 582.247 869.731 582.78 870.131C584.247 870.931 595.18 868.398 603.314 865.464C607.047 863.998 613.58 861.864 617.98 860.664C622.38 859.331 629.047 857.064 632.647 855.331C636.38 853.731 641.314 851.998 643.847 851.598C648.78 850.531 668.514 842.264 680.647 835.864C706.914 822.131 713.58 818.531 721.98 813.464C727.18 810.398 734.38 805.598 737.98 802.798C741.714 800.131 750.647 793.464 757.98 787.998C774.38 775.998 810.514 740.131 829.847 716.664C879.314 656.798 909.98 591.198 923.98 515.198C929.98 482.664 931.047 468.798 930.247 430.664C929.447 395.331 928.38 386.131 922.114 361.731C917.847 345.064 916.247 341.331 913.18 341.331C911.447 341.331 910.647 342.798 910.114 347.598Z" fill="black"/>
<path d="M32.9138 368.796C32.3805 369.329 31.9805 371.063 31.9805 372.796C31.9805 375.063 33.0471 375.996 35.9805 376.663C40.9138 377.729 44.2471 375.463 43.7138 371.463C43.4471 369.329 42.2471 368.529 38.6471 368.263C35.9805 367.996 33.4471 368.263 32.9138 368.796Z" fill="black"/>
<path d="M587.581 381.865C567.581 390.132 553.448 404.665 545.848 424.665C540.248 439.865 541.848 459.999 549.981 476.665C554.381 485.732 569.848 500.532 579.581 504.932C602.781 515.599 631.448 510.665 650.381 492.932C666.515 477.732 672.648 462.799 671.715 440.399C671.315 428.665 670.781 426.265 666.248 416.932C660.915 405.599 650.648 394.132 639.981 387.332C625.448 378.132 602.515 375.732 587.581 381.865Z" fill="black"/>
<path d="M28.7805 396.797C28.3805 397.997 27.9805 400.93 27.9805 403.463C27.9805 408.13 27.9805 408.13 33.5805 407.73C38.9138 407.33 39.3138 407.063 40.3805 402.13C41.8471 396.263 40.5138 394.663 33.8471 394.663C31.1805 394.663 29.3138 395.463 28.7805 396.797Z" fill="black"/>
<path d="M26.2475 426.266C25.0475 427.332 25.0475 432.399 26.1141 435.199C27.0475 437.732 34.6475 438.132 37.0475 435.732C39.4475 433.332 38.9141 428.266 36.1141 426.666C33.1808 425.199 27.5808 424.932 26.2475 426.266Z" fill="black"/>
<path d="M26.9138 456.265C24.7805 458.399 24.9138 462.932 27.0471 465.999C28.5138 467.865 29.8471 468.132 33.7138 467.465C37.8471 466.665 38.6471 465.999 38.6471 463.199C38.6471 457.732 36.2471 454.665 32.2471 454.665C30.1138 454.665 27.8471 455.332 26.9138 456.265Z" fill="black"/>
<path d="M30.7804 489.865C29.847 490.932 29.3137 493.465 29.5804 495.599C29.9804 498.932 30.5137 499.332 34.5137 499.332C39.847 499.332 42.1137 496.532 40.7804 491.599C40.1137 488.799 39.1804 487.999 36.1137 487.999C33.9804 487.999 31.5804 488.799 30.7804 489.865Z" fill="black"/>
<path d="M36.9147 520.932C35.3147 522.532 35.9813 530.266 37.848 531.866C40.648 534.132 46.648 531.066 46.648 527.332C46.648 525.599 45.848 523.732 45.048 522.932C42.5147 521.066 37.9813 519.866 36.9147 520.932Z" fill="black"/>
<path d="M853.981 738.531C847.048 741.731 838.114 750.798 834.381 758.531C831.981 763.331 831.314 766.931 831.314 775.331C831.314 784.665 831.848 786.931 835.314 793.198C842.648 806.531 854.648 812.798 870.381 811.731C885.448 810.665 896.248 803.331 902.914 789.598C906.514 782.265 907.314 779.331 907.181 772.665C906.914 762.398 904.381 756.398 896.648 748.131C885.981 736.798 867.048 732.531 853.981 738.531ZM859.981 746.531C859.981 749.465 846.381 765.998 843.048 767.198C840.248 768.265 838.914 766.931 837.848 761.731C837.181 758.265 837.848 756.798 842.114 751.998C847.714 745.865 850.648 744.265 856.381 744.131C859.048 743.998 859.981 744.665 859.981 746.531Z" fill="black"/>
<path d="M221.715 789.6C216.915 795.067 217.048 795.733 222.781 800C225.848 802.133 228.915 804 229.581 804C230.115 804 231.715 801.867 232.915 799.333C235.181 794.667 235.181 794.667 231.315 790.667C226.781 785.867 225.315 785.733 221.715 789.6Z" fill="black"/>
<path d="M244.781 804.264C241.581 808.797 242.114 812.797 246.647 815.997C251.181 819.197 252.514 818.797 255.314 813.197C257.581 808.797 256.514 805.064 251.981 802.664C248.381 800.664 247.047 800.931 244.781 804.264Z" fill="black"/>
<path d="M266.913 817.998C264.113 823.998 264.913 826.664 270.113 828.798C272.78 829.864 275.047 830.664 275.18 830.398C275.18 830.131 276.113 828.664 277.047 827.064C279.447 822.531 279.047 819.064 275.713 816.798C271.447 813.731 268.647 814.131 266.913 817.998Z" fill="black"/>
<path d="M289.447 828.13C287.047 834.93 287.714 836.93 292.78 839.863C295.447 841.463 297.847 842.663 297.98 842.396C300.114 839.996 302.647 832.663 302.114 830.93C301.314 828.53 294.78 823.996 292.247 823.996C291.447 823.996 290.247 825.863 289.447 828.13Z" fill="black"/>
<path d="M312.647 839.597C310.114 845.464 310.781 847.464 315.447 849.597C318.647 851.064 319.314 850.93 322.114 847.597C327.047 841.864 326.114 839.064 318.247 836.13C314.914 834.797 314.514 835.064 312.647 839.597Z" fill="black"/>
<path d="M335.313 849.6C334.513 854.4 334.78 855.467 337.313 857.6C338.913 858.933 341.18 860 342.246 860C343.98 860 347.98 852.667 347.98 849.467C347.98 847.867 344.646 846 339.713 844.8C336.38 844 336.113 844.4 335.313 849.6Z" fill="black"/>
<path d="M763.047 847.598C761.847 849.731 758.513 853.465 755.713 856.131C748.247 863.331 748.78 866.798 758.78 875.865C764.913 881.331 767.313 882.798 769.713 882.131C773.18 881.331 787.98 867.865 787.98 865.731C787.98 863.065 770.247 843.998 767.713 843.998C766.513 843.998 764.38 845.598 763.047 847.598Z" fill="black"/>
<path d="M358.246 854.266C355.58 864.133 355.98 865.466 362.513 867.066C366.646 868.133 369.18 864.933 369.313 859.066C369.313 856.133 368.513 854.266 366.78 853.333C362.78 851.333 358.913 851.733 358.246 854.266Z" fill="black"/>
<path d="M200.646 856.663C196.246 860.93 196.38 865.73 200.78 869.196C205.446 872.796 207.313 872.663 211.446 868.663C215.446 864.663 214.913 860.93 209.846 856.263C205.58 852.53 204.646 852.53 200.646 856.663Z" fill="black"/>
<path d="M380.914 862.664C379.714 868.398 380.914 870.531 385.98 871.464C391.58 872.531 392.78 871.731 393.847 866.531C394.914 860.931 392.78 858.664 386.647 858.664C382.114 858.664 381.58 859.064 380.914 862.664Z" fill="black"/>
<path d="M404.914 863.598C404.38 863.998 403.98 866.665 403.98 869.332C403.98 874.132 404.114 874.398 409.58 875.198C415.847 876.265 416.914 875.598 418.114 869.598C418.914 865.865 418.514 865.198 415.447 863.998C411.314 862.532 406.114 862.265 404.914 863.598Z" fill="black"/>
<path d="M427.848 868.931C425.048 876.397 427.048 878.664 436.781 878.664C441.581 878.664 443.315 876.931 444.248 871.597C445.048 867.331 444.781 867.197 435.581 866.264C429.715 865.731 429.048 865.864 427.848 868.931Z" fill="black"/>
<path d="M447.713 872.665C448.38 877.998 450.113 879.198 458.246 880.665C462.913 881.332 464.246 881.065 466.646 878.665C468.513 876.798 469.313 874.532 469.046 872.265C468.646 868.665 468.513 868.665 457.846 868.265L447.18 867.865L447.713 872.665Z" fill="black"/>
</svg>
