<svg width="1898" height="330" viewBox="0 0 1898 330" fill="none" xmlns="http://www.w3.org/2000/svg">
<path d="M161.098 1.59348C161.098 4.07966 161.694 4.67634 163.385 4.12938C164.479 3.73159 164.777 3.3338 164.678 2.43878C164.479 0.350397 164.131 0.00233279 162.589 0.00233279C161.247 0.00233279 161.098 0.151503 161.098 1.59348Z" fill="black"/>
<path d="M151.4 1.49005C150.953 2.2359 151.649 5.36848 152.444 6.01488C152.842 6.31322 153.687 6.41267 154.384 6.2635C155.428 6.01488 155.627 5.66682 155.627 4.27456C155.627 1.58949 155.229 0.992812 153.389 0.992812C152.444 0.992812 151.549 1.19171 151.4 1.49005Z" fill="black"/>
<path d="M321.703 2.48873C316.432 3.78154 304.499 8.60472 295.648 13.0301C290.128 15.8146 277.25 23.5715 270.786 28.0466C265.665 31.577 265.466 31.8256 266.609 32.2731C267.305 32.5217 268.449 33.4167 269.145 34.262L270.438 35.8532L275.311 33.0189C294.554 21.9306 306.338 16.9583 314.095 16.7594C318.222 16.6599 319.863 17.5052 321.405 20.5881C322.3 22.3781 322.3 22.6267 321.554 25.3615C320.36 29.4886 316.929 36.6487 312.554 43.9084C307.979 51.6155 302.41 59.969 300.272 62.3558L298.78 64.0961L299.825 65.2397C300.421 65.8861 301.565 67.6762 302.36 69.2176C303.156 70.8088 304.051 72.1016 304.349 72.1016C305.145 72.1016 307.681 69.2673 309.968 65.8364C311.062 64.2453 312.653 62.0077 313.548 60.9138C316.581 57.0354 327.52 40.925 331.747 34.0631C334.134 30.2344 337.217 24.7151 338.659 21.7317C340.846 17.1572 341.294 15.8643 341.493 12.7815C341.841 7.01357 339.703 3.78154 334.482 2.24012C331.15 1.24565 326.327 1.34509 321.703 2.48873Z" fill="black"/>
<path d="M143.693 2.43881C142.699 2.68743 142.401 3.13494 142.301 4.47747C142.202 5.42222 142.45 6.61558 142.848 7.16254C143.445 8.00784 143.743 8.00784 145.384 7.46088C147.174 6.91392 147.274 6.76475 146.975 5.27305C146.528 3.18466 145.235 2.04102 143.693 2.43881Z" fill="black"/>
<path d="M134.147 4.62503C132.406 5.32115 132.257 7.35982 133.898 9.19958C134.942 10.4427 135.042 10.4924 136.633 9.69682C138.522 8.75207 138.522 8.55318 137.229 5.96756C136.136 3.82945 136.136 3.82945 134.147 4.62503Z" fill="black"/>
<path d="M124.948 7.55761C123.556 8.20401 123.556 8.50236 124.799 10.9388C126.092 13.4747 126.341 13.5741 127.982 12.2813L129.374 11.1874L128.528 9.04931C127.633 6.86148 126.937 6.56314 124.948 7.55761Z" fill="black"/>
<path d="M116.246 10.7405C114.555 11.6356 114.506 12.0334 116.097 14.7681L117.389 16.9062L118.831 15.8123C120.572 14.5195 120.671 13.7737 119.329 11.5361C118.235 9.74607 118.086 9.69635 116.246 10.7405Z" fill="black"/>
<path d="M107.396 14.8196C106.302 15.6649 106.253 15.9135 106.849 17.3058C107.197 18.1511 107.844 19.1456 108.291 19.5433C109.037 20.2395 109.286 20.1897 110.628 19.0958L112.12 17.9025L111.125 16.0627C109.932 13.8749 108.987 13.5268 107.396 14.8196Z" fill="black"/>
<path d="M28.3339 18.995C26.4444 19.7409 24.6544 20.984 22.5163 23.1221C18.9362 26.7022 18.1406 28.8403 18.5384 33.9121C18.9362 39.8292 23.113 44.5032 29.1792 45.796C35.9416 47.1882 42.5548 43.6081 45.588 36.9452C46.6819 34.6082 46.831 33.6634 46.6322 30.8292C45.936 21.2823 37.1847 15.6138 28.3339 18.995Z" fill="black"/>
<path d="M157.864 18.8938C144.787 20.7335 136.93 22.7225 125.295 27.1976C102.472 35.9489 81.986 49.772 67.2678 66.3797C47.6768 88.4071 33.0581 120.081 30.0747 146.932C27.2902 172.092 29.8261 194.616 37.8316 214.357C42.4061 225.843 49.616 239.119 56.3784 248.616C59.6602 253.24 66.4225 261.843 67.1187 262.29C67.3673 262.439 68.0634 262.29 68.6104 261.942C71.4943 260.152 95.9583 231.81 103.715 221.268C113.411 208.091 128.229 182.981 136.185 166.374C138.074 162.396 140.461 157.771 141.505 156.081C142.499 154.44 145.483 148.771 148.168 143.55C160.897 118.44 161.941 116.401 175.217 92.5839C180.786 82.5895 184.466 76.1752 189.985 66.8272C192.074 63.2471 194.361 59.2195 195.057 57.877C195.753 56.5344 198.14 52.4074 200.378 48.7278C202.615 45.0483 205.201 40.3743 206.195 38.2859C208.234 34.0097 210.72 30.181 214.35 25.8551L216.836 22.8717L215.444 22.3247C205.151 18.3965 174.571 16.5568 157.864 18.8938ZM133.499 35.3025C134.444 36.7942 132.754 37.9876 120.422 44.5511C106.002 52.2085 100.384 55.6394 93.2732 61.109C90.5384 63.1974 87.1572 65.783 85.7152 66.8769C84.2733 67.9708 81.2899 70.457 79.0523 72.3465C76.8148 74.2857 74.7264 75.9763 74.3783 76.1752C74.0302 76.3741 72.9363 77.5177 71.8921 78.7608C70.301 80.7 70.2015 81.0481 70.8479 81.6945C71.4943 82.3906 71.3452 82.5895 69.3065 83.5343C66.7706 84.7773 64.732 87.4624 64.2844 90.0977C63.9364 92.4347 65.3784 93.9762 67.8645 93.9762C70.3507 93.9762 73.9805 90.6447 74.3783 87.9596C74.9253 84.6282 76.5661 85.7221 76.5661 89.4016C76.5661 92.1861 74.7264 95.0204 72.091 96.3132C68.8093 98.0038 66.8203 97.8546 64.8314 95.6668C63.8867 94.722 63.1408 93.6778 63.1408 93.4292C63.1408 92.5342 61.7983 92.9817 60.6049 94.2745C59.9585 94.9706 58.8149 95.8657 58.0193 96.2635C56.279 97.2082 55.8812 96.4126 56.6768 93.5287C58.6657 86.0204 66.3231 74.8824 76.1186 65.1863C80.5937 60.7609 93.6213 50.9157 99.3892 47.5842C104.212 44.7997 114.903 39.5787 119.925 37.5898C125.593 35.3522 132.803 34.1589 133.499 35.3025ZM140.461 52.1588C140.162 53.203 138.372 54.4958 137.875 54.0483C137.776 53.8991 138.173 53.0041 138.82 52.0096C140.013 50.2196 141.057 50.319 140.461 52.1588ZM171.14 53.0538C172.234 54.0483 172.284 55.5897 171.19 56.783C169.45 58.7223 166.068 57.0317 166.814 54.5952C167.61 52.109 169.4 51.4626 171.14 53.0538ZM112.765 94.3242C114.008 94.9209 114.605 95.5673 114.654 96.3132C114.704 97.4071 114.555 97.4568 110.676 97.4568C103.864 97.5065 99.7373 98.9485 95.4113 102.827C90.8368 106.954 88.45 111.727 87.4556 118.689C86.8589 122.816 87.4058 127.44 89.0467 132.114C90.0909 135.147 89.5937 135.495 87.4556 133.208C85.2677 130.871 83.4777 126.644 82.881 122.567C82.3838 119.285 82.4832 118.241 83.428 113.965C84.9197 107.451 86.5605 104.368 90.7373 100.142C94.4169 96.5121 96.8533 95.0204 101.428 93.7276C104.809 92.7828 110.229 93.0812 112.765 94.3242ZM129.024 118.639C129.024 124.009 128.975 124.208 127.085 128.037C125.842 130.523 124.151 132.959 122.56 134.551C117.986 139.125 109.036 142.755 103.964 142.059C101.975 141.81 98.4445 140.318 98.4445 139.771C98.4445 139.622 100.533 138.976 103.069 138.329C112.964 135.893 119.776 131.219 122.809 124.705C123.605 122.965 124.748 119.087 125.345 116.103C125.942 113.07 126.687 110.484 126.986 110.285C128.179 109.49 129.024 112.971 129.024 118.639ZM64.0358 166.423C63.9364 166.97 63.3894 167.318 62.7927 167.318C62.1463 167.318 61.3508 167.766 60.953 168.313C60.5055 168.86 60.1574 169.059 60.1574 168.711C60.1574 168.412 59.3618 168.959 58.3176 169.954C57.1243 171.197 56.4281 171.594 56.279 171.147C55.9806 170.202 58.5662 167.617 60.9032 166.572C63.4391 165.379 64.2347 165.379 64.0358 166.423ZM67.3673 166.075C67.2181 166.324 66.7209 166.572 66.3231 166.572C65.9253 166.572 65.627 166.324 65.627 166.075C65.627 165.777 66.0745 165.578 66.6712 165.578C67.2181 165.578 67.5165 165.777 67.3673 166.075ZM88.997 181.489C88.997 182.235 86.6103 183.628 85.8147 183.329C85.3672 183.13 83.9749 184.224 82.0854 186.263C78.9529 189.594 78.3065 189.694 80.0965 186.512C81.1904 184.572 84.2733 182.086 85.9639 181.838C86.5108 181.738 87.1572 181.539 87.3064 181.34C87.8534 180.843 88.997 180.942 88.997 181.489ZM95.2622 216.544C94.4169 217.837 92.9749 218.235 92.9749 217.191C92.9749 216.843 93.5716 215.948 94.3671 215.152C95.4113 214.009 95.7594 213.909 95.8588 214.556C95.9583 215.003 95.6599 215.898 95.2622 216.544Z" fill="black"/>
<path d="M98.9915 19.3437C97.6987 20.6365 97.6987 21.2332 98.9418 23.2221C100.135 25.1614 100.284 25.2111 102.124 23.6697L103.616 22.526L102.572 20.5868C101.378 18.2995 100.384 17.9515 98.9915 19.3437Z" fill="black"/>
<path d="M91.3334 23.8702C89.6428 25.2127 89.5434 27.2514 91.1843 28.7928L92.3776 29.8867L93.7202 28.7431C95.1621 27.4503 95.1621 26.058 93.571 23.9696L92.676 22.826L91.3334 23.8702Z" fill="black"/>
<path d="M222.058 28.8395C218.03 32.6682 216.091 35.3036 212.809 41.519C211.665 43.7068 209.726 47.1875 208.533 49.2759C207.34 51.3642 206.345 53.1543 206.345 53.3532C206.345 53.9001 199.235 66.4304 197.643 68.6183C196.748 69.8614 195.406 72.0989 194.66 73.5906C193.864 75.0823 191.229 79.6072 188.842 83.6348C186.456 87.6126 184.467 91.0933 184.467 91.3419C184.467 91.5905 187.947 91.7894 192.323 91.7894C198.936 91.8391 200.577 91.9883 203.113 92.8336C205.699 93.7286 205.898 93.8778 204.505 93.9275C203.66 93.9772 202.516 94.1264 202.019 94.3253C201.273 94.6236 201.373 94.7728 202.616 95.0712C203.461 95.27 202.417 95.27 200.378 95.0712C196.201 94.6734 190.483 94.7231 185.163 95.2203L181.583 95.5187L178.798 100.988C175.715 106.856 175.715 107.005 179.494 105.911C186.108 103.922 190.98 103.325 204.107 102.927C212.113 102.679 218.478 102.679 219.92 102.977C224.643 103.872 232.897 108.347 238.765 113.22C241.549 115.507 248.461 124.259 250.848 128.535C253.085 132.563 255.422 139.027 256.068 143.005C256.665 146.585 256.814 156.927 256.267 158.27C255.82 159.463 257.361 159.364 258.008 158.17C258.306 157.673 258.903 155.137 259.35 152.551C261.24 141.861 259.002 131.618 252.339 120.082C250.201 116.403 242.743 105.961 240.704 103.773C238.069 100.988 231.356 96.6623 226.085 94.375C220.367 91.9386 218.279 90.8447 218.279 90.4469C218.279 90.248 218.627 89.8502 219.025 89.5021C220.566 88.2093 228.87 91.0933 235.93 95.3695C242.345 99.2479 243.886 100.59 247.814 105.811C256.864 117.795 259.35 122.27 262.582 132.513C264.372 138.132 264.671 139.773 264.87 144.944C265.267 153.993 263.975 159.612 259.301 169.308C257.859 172.292 256.466 175.325 256.317 176.021C255.72 178.109 260.196 173.435 263.527 168.513C266.958 163.391 269.195 157.822 270.24 151.905C271.184 146.435 271.184 143.452 270.24 137.933C268.897 130.325 267.157 125.552 262.731 117.496C260.444 113.32 258.555 109.541 258.555 109.143C258.555 108.049 259.897 107.651 260.842 108.447C261.24 108.795 263.079 111.281 264.87 114.016C271.731 124.408 274.466 132.811 274.814 144.745C275.013 151.01 274.914 152.551 273.969 156.281C270.588 169.955 262.93 180.794 252.787 186.413C245.328 190.59 244.533 191.037 244.732 191.236C245.229 191.684 251.394 190.292 255.074 188.899C261.289 186.513 266.908 181.938 272.278 174.828C275.908 170.054 278.046 165.678 280.085 159.115C284.411 144.993 282.72 130.723 274.914 115.905C271.085 108.646 269.494 106.458 264.124 101.386C258.555 96.1153 255.522 93.7286 252.389 92.1375C250.997 91.4413 247.267 89.4524 244.135 87.7121C230.361 80.1044 220.914 77.6182 204.853 77.5188C199.185 77.4691 197.196 77.6182 196.55 78.1155C196.003 78.6127 195.853 78.6127 196.102 78.1652C196.301 77.8668 196.201 77.5685 195.953 77.5685C195.654 77.5685 195.406 77.3696 195.406 77.121C195.406 75.7287 220.118 75.4304 225.24 76.7729C234.339 79.1596 241.45 81.9939 246.024 85.1265C247.218 85.9718 250.151 87.5132 252.488 88.6568C257.908 91.143 263.03 95.0712 268.599 100.839C273.571 105.961 276.604 110.436 279.687 116.999C282.472 122.867 283.566 126.347 285.206 134.154C286.35 139.673 286.45 141.264 286.251 146.933C285.952 155.336 283.466 165.48 280.532 170.601C272.726 184.026 262.731 192.579 251.096 195.761C248.56 196.457 245.975 196.656 239.262 196.656C233.544 196.656 230.71 196.855 230.71 197.203C230.71 198.148 234.19 199.391 239.013 200.236C243.091 200.932 244.682 200.932 250.301 200.435C255.87 199.938 257.51 199.54 261.787 197.85C275.759 192.38 289.135 175.772 293.61 158.419C295.499 150.861 295.698 139.872 294.057 131.22C290.03 110.038 279.24 93.1817 261.687 80.6514C258.455 78.3641 253.433 75.2812 250.499 73.7398C247.516 72.1984 245.179 70.8558 245.278 70.7564C245.577 70.5078 251.146 72.447 254.825 74.0879C266.113 79.1596 279.886 91.5408 287.643 103.673C291.422 109.64 296.494 123.513 297.936 131.916C298.88 137.436 298.731 153.496 297.687 158.518C295.151 170.402 289.532 180.645 279.985 190.54C274.765 196.01 270.737 198.894 264.223 201.877C255.87 205.756 248.511 206.551 237.372 204.91C233.494 204.314 229.367 203.518 228.174 203.12C225.389 202.126 220.019 198.943 217.284 196.656C215.246 194.966 213.804 194.419 213.804 195.363C213.804 195.662 215.444 197.501 217.433 199.59C220.516 202.722 221.809 203.667 226.234 205.805C244.632 214.656 262.682 213.612 279.439 202.772C283.963 199.838 291.521 192.082 295.599 186.264C301.764 177.314 305.195 169.905 307.681 160.109C308.925 155.237 309.024 154.143 309.024 144.198C309.024 134.601 308.676 129.778 307.284 118.59C307.035 116.701 306.936 115.06 307.035 114.961C307.582 114.414 308.825 118.342 309.471 122.767C309.919 125.601 310.366 128.088 310.516 128.336C310.715 128.585 311.262 130.971 311.759 133.607C312.554 137.634 312.703 140.17 312.604 147.927C312.455 156.679 312.306 157.772 310.864 163.192C308.825 170.85 306.488 176.518 302.759 182.932C298.781 189.695 296.295 192.977 290.179 199.292C280.284 209.485 268.798 215.004 254.726 216.347C248.361 216.943 241.301 216.197 232.997 214.109C227.577 212.717 224.494 211.225 219.025 207.446C211.566 202.225 206.494 196.159 202.616 187.805C200.776 183.927 200.428 184.424 201.373 189.496C202.715 196.706 206.991 203.767 213.455 209.435C220.665 215.849 225.29 218.534 233.693 221.269C241.748 223.905 245.627 224.501 254.328 224.452C261.538 224.452 262.831 224.302 268.002 222.91C291.521 216.695 309.521 199.242 319.715 172.64C322.847 164.485 322.35 170.551 319.118 179.75C315.587 189.943 312.007 195.96 304.002 205.407C299.925 210.181 292.416 216.496 286.947 219.778C280.234 223.755 270.041 227.584 263.03 228.678C257.063 229.673 248.262 229.374 241.649 227.932C217.433 222.86 201.124 209.186 195.804 189.446C195.008 186.562 194.71 183.479 194.461 176.021C194.163 166.524 194.163 166.375 193.317 167.866C192.87 168.712 191.975 171.745 191.378 174.579C188.793 187.109 192.124 201.082 200.279 212.07C205.997 219.778 212.909 225.396 223.748 231.115C233.345 236.236 242.593 238.225 256.814 238.324C264.671 238.374 266.461 238.225 271.781 237.081C286.101 233.998 297.14 228.181 307.433 218.336C309.82 216.048 311.908 214.258 312.057 214.457C312.604 215.004 310.715 217.789 306.985 221.717C292.963 236.634 271.98 243.943 248.162 242.203C239.212 241.556 232.649 239.816 223.748 235.789C211.566 230.17 201.572 222.164 195.804 213.264C190.931 205.756 189.24 201.827 187.251 193.424C185.511 186.065 185.312 183.38 185.958 177.761C187.202 167.468 190.632 158.966 196.102 152.651C197.892 150.612 199.235 148.872 199.135 148.772C198.389 148.027 189.588 155.535 187.202 158.966C185.213 161.8 181.334 170.502 180.489 174.181C175.914 192.877 183.025 214.656 198.787 230.12C209.229 240.363 224.444 248.269 240.356 251.7C244.582 252.595 246.919 252.744 254.825 252.744C260.444 252.694 266.56 252.346 269.991 251.899C277.4 250.855 277.3 250.855 276.256 252.048C274.218 254.286 258.903 256.424 248.361 255.927C239.262 255.529 225.687 251.949 217.533 247.722C199.533 238.523 189.539 228.827 181.533 212.916C178.102 206.104 176.262 200.336 175.218 193.424C172.732 176.319 177.655 161.203 189.638 149.419C195.356 143.75 199.483 141.612 209.577 138.878C212.063 138.231 204.654 138.082 200.875 138.728C190.881 140.419 184.168 144.894 176.262 155.137C169.301 164.187 165.522 177.065 166.218 189.446C167.312 208.59 175.417 226.291 189.887 241.308C195.257 246.877 201.174 251.004 211.069 256.125C218.577 260.004 223.848 261.943 233.345 264.28C237.074 265.225 240.654 266.269 241.301 266.617C242.295 267.214 242.196 267.263 239.759 267.413C234.339 267.711 222.704 264.678 212.809 260.352C198.688 254.186 187.599 245.584 179.047 234.247C174.522 228.181 168.804 217.739 166.417 211.076C163.185 201.977 161.296 190.49 161.793 182.982C162.738 169.457 166.318 160.259 174.572 149.966C179.743 143.502 188.842 137.087 196.55 134.502C201.621 132.811 214.599 131.817 219.671 132.762C221.511 133.06 223.699 133.458 224.494 133.607L225.986 133.905L224.842 132.612C221.461 128.983 213.157 127.242 203.511 128.237C185.113 130.027 173.478 137.087 162.787 152.9C157.815 160.259 157.566 160.706 154.782 168.513C153.041 173.435 152.445 175.971 151.997 180.347C150.854 192.131 153.539 208.142 158.909 221.269C162.638 230.468 163.135 231.811 162.936 232.358C162.688 233.153 158.809 226.838 156.224 221.269C147.472 202.623 145.633 179.7 151.6 164.336C153.539 159.314 161.047 146.982 164.577 142.955C175.914 130.126 189.439 124.209 207.34 124.309C214.848 124.358 219.92 125.005 223.301 126.297C225.986 127.292 231.555 131.071 234.538 133.955C235.732 135.049 236.826 135.795 236.975 135.596C237.422 135.148 234.986 130.574 232.947 128.038C232.052 126.944 229.914 125.204 228.174 124.159C222.903 121.027 219.87 120.38 208.384 119.784C189.24 118.74 185.71 119.386 170.395 126.745L164.08 129.828L158.262 141.563C155.08 148.027 151.351 155.137 150.058 157.325C148.716 159.513 146.577 163.54 145.285 166.275C141.058 175.325 136.285 184.325 132.456 190.789C125.743 202.026 119.279 212.369 117.141 215.302C116.047 216.894 113.263 220.722 111.025 223.805C107.395 228.927 104.511 232.457 91.0861 248.418C83.1303 257.866 69.9039 271.192 62.5448 277.109C54.241 283.772 41.3626 291.827 33.4566 295.208C28.9318 297.147 27.4401 297.545 24.0589 297.744C20.4291 297.943 19.9318 297.843 18.6887 296.799C16.849 295.158 16.2523 292.225 16.8987 287.998C17.4954 284.517 22.4677 273.429 27.1914 265.275C28.9815 262.192 38.0809 248.369 40.9648 244.391C41.3129 243.943 40.9151 243.098 39.8212 241.706C38.9262 240.612 38.0312 239.667 37.7825 239.667C36.5892 239.667 26.197 253.043 19.2854 263.534C10.8821 276.313 3.62252 289.888 1.2358 297.495C-0.305628 302.269 -0.405075 307.092 0.937459 310.075C4.11976 317.037 12.523 316.738 30.9704 308.932C37.4345 306.197 52.5504 297.247 59.0642 292.274C68.0144 285.413 80.6441 273.181 87.6552 264.529C90.4397 261.098 94.0695 256.722 95.7104 254.833C97.3512 252.893 101.279 248.219 104.412 244.391C107.495 240.562 111.473 235.739 113.163 233.65C114.904 231.562 118.036 227.286 120.125 224.203C122.263 221.12 124.102 218.883 124.202 219.181C124.301 219.529 123.307 221.717 122.014 224.104C118.434 230.667 115.152 235.391 99.1413 256.822C96.9037 259.805 94.7159 263.037 94.2684 263.932C93.8209 264.777 91.4341 268.208 88.948 271.54C86.4618 274.821 84.622 277.705 84.8209 277.954C85.0695 278.153 87.7546 279.993 90.738 282.031C112.964 297.048 138.224 307.092 160.848 309.876C167.66 310.672 190.185 310.672 197.146 309.876C216.389 307.589 229.317 303.91 244.93 296.401C267.157 285.611 284.311 271.838 299.079 252.844C309.422 239.468 317.775 223.258 322.4 207.347C326.825 192.181 328.068 184.573 328.516 169.557C329.063 150.761 325.98 130.325 320.162 114.612C314.295 98.6015 301.516 77.4193 290.626 65.6349C282.521 56.8338 267.256 44.8505 255.87 38.287C246.372 32.8174 232.5 26.6517 227.378 25.6075C225.936 25.3092 225.489 25.6075 222.058 28.8395ZM238.566 42.8615C239.361 44.2041 239.361 44.3035 238.118 45.5466C237.024 46.6405 236.627 46.74 235.732 46.2924C234.24 45.4969 233.842 43.4582 234.986 42.2151C236.129 40.9223 237.522 41.1709 238.566 42.8615ZM220.964 45.6958C222.157 46.9886 221.809 48.6792 220.168 49.8725C218.826 50.867 218.776 50.867 217.732 49.9223C215.792 48.1819 215.594 47.2869 216.837 45.9444C218.179 44.5024 219.82 44.403 220.964 45.6958ZM256.218 52.309C256.864 53.2537 256.267 55.6405 255.323 56.0382C253.433 56.7344 252.389 53.8007 253.93 52.1101C254.825 51.0659 255.522 51.1156 256.218 52.309ZM147.92 243.197C150.655 245.683 150.754 246.877 148.616 250.208C146.577 253.341 145.484 254.087 142.749 254.087C140.81 254.087 140.312 253.838 138.622 252.098C136.981 250.308 136.732 249.761 136.732 247.672C136.732 245.435 136.931 245.087 138.97 243.197C140.909 241.457 141.506 241.159 143.445 241.159C145.384 241.159 145.981 241.457 147.92 243.197ZM175.914 262.192C176.213 262.54 176.76 263.733 177.108 264.777C177.704 266.617 177.953 266.816 180.091 267.164C182.13 267.562 182.478 267.81 182.726 269.054C183.174 270.993 182.776 271.44 180.389 271.788C178.798 272.087 178.152 272.484 177.406 273.827C176.312 275.667 174.97 276.611 173.925 276.214C173.577 276.065 172.831 275.12 172.284 274.076C171.389 272.385 171.041 272.186 168.406 271.788L165.522 271.341L165.671 269.551C165.82 267.761 165.87 267.761 168.704 267.313C171.489 266.866 171.539 266.816 172.086 264.827C172.384 263.683 172.881 262.49 173.13 262.142C173.826 261.346 175.268 261.396 175.914 262.192ZM269.593 265.871C270.588 266.766 270.787 268.258 269.892 268.805C269.195 269.252 268.002 267.661 268.002 266.17C268.002 264.827 268.35 264.728 269.593 265.871ZM226.483 279.595C227.03 280.589 227.826 281.534 228.223 281.634C228.621 281.733 229.616 281.982 230.361 282.131C231.505 282.429 231.754 282.678 231.605 283.772C231.505 284.766 231.058 285.214 229.715 285.661C228.571 286.009 227.676 286.755 227.129 287.899C226.682 288.794 226.085 289.738 225.837 289.987C224.942 290.882 223.301 289.888 222.754 288.147C222.306 286.855 221.859 286.407 220.616 286.158C217.483 285.512 217.284 285.413 217.284 283.921C217.284 282.628 217.533 282.379 219.621 281.783C221.511 281.236 222.008 280.838 222.356 279.694C223.102 276.86 224.991 276.81 226.483 279.595ZM143.395 284.02C144.042 285.064 143.296 286.556 142.053 286.805C141.058 287.004 139.964 284.866 140.412 283.672C140.81 282.628 142.649 282.877 143.395 284.02ZM197.494 289.241C198.538 290.186 198.638 291.28 197.693 292.473C196.699 293.816 195.505 293.567 194.66 291.877C194.014 290.683 194.014 290.236 194.511 289.39C195.306 288.197 196.251 288.098 197.494 289.241Z" fill="black"/>
<path d="M83.1314 29.4885C81.6894 31.0299 81.7391 32.3725 83.2805 33.8144L84.5734 35.0078L85.9159 33.6653L87.2584 32.3227L86.264 30.483C85.0209 28.1957 84.4739 28.0465 83.1314 29.4885Z" fill="black"/>
<path d="M74.875 35.4022C73.7811 36.9437 73.8805 37.9381 75.3225 39.2807C76.7148 40.5735 77.6098 40.3746 78.8529 38.4851C79.4496 37.6398 79.3998 37.2917 78.5545 35.8995C77.4109 34.01 75.9689 33.8111 74.875 35.4022Z" fill="black"/>
<path d="M67.7149 40.3775C66.2232 42.0184 66.3226 43.4604 68.0132 44.7034C69.306 45.5985 69.5546 45.6482 70.4994 44.9521C71.9414 43.9576 71.8916 42.6151 70.201 40.7256L68.8585 39.2339L67.7149 40.3775Z" fill="black"/>
<path d="M60.7056 47.5358C59.3631 49.2761 59.4128 49.7733 61.0536 51.3645L62.4459 52.707L64.0868 51.0662L65.6779 49.3756L64.1862 47.8341C62.4459 45.8949 61.9984 45.8949 60.7056 47.5358Z" fill="black"/>
<path d="M54.4889 54.7471C52.848 56.04 52.848 57.3328 54.4392 58.377C55.5828 59.1228 55.732 59.1228 57.0248 57.9792C58.2679 56.8853 58.3176 56.6864 57.7209 55.5427C56.7762 53.7527 55.9806 53.6035 54.4889 54.7471Z" fill="black"/>
<path d="M47.2797 62.9486C46.136 64.3906 46.4344 65.1862 48.3736 66.1806C50.2631 67.2248 52.6001 63.6945 50.8598 62.4017C49.5172 61.3575 48.4233 61.5066 47.2797 62.9486Z" fill="black"/>
<path d="M330.207 65.4391C329.063 66.7319 328.168 68.2733 328.168 68.87C328.168 70.1628 331.698 73.5938 332.941 73.5938C333.936 73.5938 338.361 69.6159 338.361 68.7706C338.361 67.975 333.687 63.1518 332.892 63.1518C332.544 63.1518 331.301 64.196 330.207 65.4391Z" fill="black"/>
<path d="M41.2638 71.205C40.1202 73.0945 40.1699 73.6415 41.761 74.4371C43.203 75.1829 44.098 74.7851 44.993 73.0945C45.5897 71.9509 45.5897 71.6028 44.9433 70.6581C43.8494 69.1167 42.4074 69.3653 41.2638 71.205Z" fill="black"/>
<path d="M36.3894 78.1646C36.1408 78.5127 35.743 79.3082 35.5939 79.9049C35.1961 81.148 36.6381 82.1922 38.4281 81.9436C39.8204 81.7447 40.7154 79.4574 39.7706 78.3635C39.0248 77.4187 37.0856 77.3193 36.3894 78.1646Z" fill="black"/>
<path d="M32.2136 85.3759C30.8214 86.967 30.6722 88.409 31.8159 89.0057C33.2578 89.7515 34.8987 89.304 35.744 87.9118C36.3407 86.9173 36.291 86.7184 35.0976 85.6742C33.5065 84.282 33.2081 84.282 32.2136 85.3759Z" fill="black"/>
<path d="M27.2405 95.6686C26.5444 97.21 27.0416 98.4531 28.2847 98.4531C29.4781 98.4531 31.0692 96.315 30.6217 95.2211C30.1742 93.978 27.8869 94.3261 27.2405 95.6686Z" fill="black"/>
<path d="M23.0152 106.014C20.7279 108.549 20.2804 110.638 21.971 111.036C23.413 111.433 24.2583 110.688 24.9047 108.251C25.3025 106.66 25.3025 106.113 24.7555 105.566C24.1589 105.019 23.9102 105.069 23.0152 106.014Z" fill="black"/>
<path d="M185.46 108.201C174.024 110.488 173.974 110.538 172.482 112.975C170.792 115.66 166.963 123.367 167.162 123.566C167.261 123.665 169.002 122.969 171.04 121.974C177.057 119.14 185.908 116.057 189.935 115.312C195.057 114.416 218.725 114.367 221.609 115.262C225.239 116.356 233.741 122.472 238.217 127.195C241.548 130.726 243.139 132.963 246.123 138.383C248.161 142.112 250.001 145.195 250.15 145.195C250.797 145.195 249.404 138.731 247.913 134.704C243.438 122.671 232.598 112.129 220.018 107.604C217.88 106.859 215.791 106.709 205.349 106.66C193.615 106.61 192.919 106.66 185.46 108.201Z" fill="black"/>
<path d="M16.9497 118.889C16.2039 121.077 16.2536 121.276 17.6956 121.823C19.237 122.419 20.7784 121.723 21.3254 120.182C21.9718 118.491 21.0768 117.348 19.1873 117.348C17.7453 117.348 17.3972 117.596 16.9497 118.889Z" fill="black"/>
<path d="M14.1637 128.438C13.9648 129.085 13.9151 130.328 14.0146 131.074C14.1637 132.317 14.4124 132.516 15.8543 132.665C17.7438 132.864 18.3902 132.217 18.3902 130.228C18.3902 128.737 17.6941 127.991 15.8046 127.543C14.661 127.245 14.4124 127.394 14.1637 128.438Z" fill="black"/>
<path d="M339.406 129.63C339.207 130.972 339.406 134.602 339.803 137.735C341.395 149.619 341.743 158.271 341.146 171.049C340.897 177.762 340.45 184.475 340.151 185.967C339.903 187.458 339.455 190.392 339.107 192.431C338.212 198.248 334.334 212.221 331.947 218.436C323.345 240.613 310.218 260.552 292.616 278.204C285.655 285.215 281.826 288.447 273.224 294.712C263.925 301.474 250.6 308.933 244.135 311.021C242.644 311.518 240.555 312.314 239.561 312.811C235.334 314.949 219.323 319.673 210.075 321.463C203.362 322.805 200.23 323.104 187.749 323.502L176.412 323.85L176.661 325.789C176.81 326.883 177.059 327.927 177.257 328.076C177.655 328.474 192.721 328.275 194.064 327.877C194.511 327.728 194.909 327.231 194.909 326.783C194.959 325.988 195.009 325.988 195.605 326.783C196.451 327.927 200.727 327.977 203.611 326.933C204.705 326.535 206.992 326.187 208.683 326.187C210.572 326.187 212.81 325.789 214.351 325.192C215.793 324.695 217.136 324.347 217.335 324.496C217.881 324.794 221.959 323.85 224.992 322.756C226.384 322.209 228.821 321.413 230.462 320.966C232.102 320.468 234.589 319.623 235.931 318.977C237.323 318.38 239.163 317.734 240.108 317.584C241.948 317.187 249.307 314.104 253.832 311.717C263.627 306.596 266.113 305.253 269.246 303.364C271.185 302.22 273.87 300.43 275.213 299.386C276.605 298.391 279.936 295.905 282.671 293.866C288.787 289.391 302.262 276.016 309.472 267.264C327.919 244.939 339.356 220.475 344.577 192.132C346.814 180 347.212 174.828 346.914 160.608C346.615 147.431 346.218 144 343.881 134.901C342.29 128.685 341.693 127.293 340.549 127.293C339.903 127.293 339.604 127.84 339.406 129.63Z" fill="black"/>
<path d="M12.2738 137.535C12.075 137.734 11.9258 138.38 11.9258 139.026C11.9258 139.872 12.3236 140.22 13.4175 140.468C15.2573 140.866 16.5003 140.021 16.3014 138.529C16.202 137.734 15.7545 137.435 14.412 137.336C13.4175 137.236 12.4727 137.336 12.2738 137.535Z" fill="black"/>
<path d="M219.125 142.408C211.666 145.491 206.396 150.911 203.561 158.369C201.473 164.038 202.07 171.546 205.103 177.762C206.744 181.143 212.512 186.662 216.141 188.303C224.793 192.281 235.484 190.441 242.545 183.828C248.561 178.159 250.848 172.59 250.5 164.237C250.351 159.861 250.152 158.966 248.462 155.486C246.473 151.259 242.644 146.983 238.666 144.447C233.246 141.016 224.694 140.121 219.125 142.408Z" fill="black"/>
<path d="M10.7339 147.976C10.5847 148.424 10.4355 149.517 10.4355 150.462C10.4355 152.203 10.4355 152.203 12.5239 152.053C14.5129 151.904 14.662 151.805 15.0598 149.965C15.6068 147.777 15.1096 147.18 12.6234 147.18C11.6289 147.18 10.9328 147.479 10.7339 147.976Z" fill="black"/>
<path d="M9.78939 158.967C9.34188 159.365 9.34188 161.254 9.73967 162.298C10.0877 163.243 12.922 163.392 13.817 162.497C14.712 161.602 14.5131 159.713 13.4689 159.116C12.375 158.569 10.2866 158.47 9.78939 158.967Z" fill="black"/>
<path d="M10.0372 170.153C9.24167 170.948 9.29139 172.639 10.087 173.783C10.6339 174.479 11.1312 174.578 12.5731 174.33C14.1146 174.031 14.4129 173.783 14.4129 172.738C14.4129 170.7 13.5179 169.556 12.0262 169.556C11.2306 169.556 10.3853 169.805 10.0372 170.153Z" fill="black"/>
<path d="M11.479 182.684C11.1309 183.082 10.932 184.027 11.0315 184.823C11.1806 186.066 11.3795 186.215 12.8712 186.215C14.8602 186.215 15.7055 185.171 15.2082 183.331C14.9596 182.287 14.6115 181.988 13.4679 181.988C12.6723 181.988 11.7773 182.287 11.479 182.684Z" fill="black"/>
<path d="M13.7657 194.27C13.169 194.867 13.4176 197.751 14.1138 198.348C15.158 199.193 17.3955 198.049 17.3955 196.657C17.3955 196.011 17.0972 195.315 16.7988 195.016C15.8541 194.32 14.1635 193.873 13.7657 194.27Z" fill="black"/>
<path d="M318.471 275.42C315.885 276.613 312.553 279.995 311.161 282.879C310.266 284.669 310.018 286.011 310.018 289.144C310.018 292.624 310.216 293.47 311.509 295.807C314.244 300.779 318.719 303.116 324.587 302.718C330.205 302.32 334.233 299.586 336.719 294.464C338.062 291.729 338.36 290.635 338.31 288.149C338.211 284.321 337.266 282.083 334.382 279C330.404 274.774 323.343 273.183 318.471 275.42ZM320.708 278.404C320.708 279.497 315.636 285.663 314.393 286.111C313.349 286.508 312.852 286.011 312.454 284.072C312.205 282.779 312.454 282.232 314.045 280.442C316.134 278.155 317.227 277.558 319.366 277.508C320.36 277.459 320.708 277.707 320.708 278.404Z" fill="black"/>
<path d="M82.6832 294.466C80.8932 296.504 80.9429 296.753 83.081 298.344C84.2247 299.14 85.3683 299.836 85.6169 299.836C85.8158 299.836 86.4125 299.04 86.86 298.096C87.7053 296.355 87.7053 296.355 86.2633 294.864C84.5727 293.074 84.0258 293.024 82.6832 294.466Z" fill="black"/>
<path d="M91.2849 299.933C90.0915 301.624 90.2904 303.116 91.981 304.309C93.6716 305.502 94.1689 305.353 95.2131 303.265C96.0584 301.624 95.6606 300.232 93.97 299.337C92.6274 298.591 92.1302 298.69 91.2849 299.933Z" fill="black"/>
<path d="M99.5399 305.056C98.4957 307.293 98.794 308.288 100.733 309.083C101.728 309.481 102.573 309.779 102.623 309.68C102.623 309.58 102.971 309.034 103.319 308.437C104.214 306.746 104.065 305.453 102.822 304.608C101.23 303.465 100.186 303.614 99.5399 305.056Z" fill="black"/>
<path d="M107.942 308.834C107.047 311.37 107.296 312.115 109.185 313.209C110.18 313.806 111.075 314.254 111.124 314.154C111.92 313.259 112.865 310.524 112.666 309.878C112.368 308.983 109.931 307.292 108.986 307.292C108.688 307.292 108.241 307.988 107.942 308.834Z" fill="black"/>
<path d="M116.594 313.11C115.65 315.298 115.898 316.044 117.639 316.84C118.832 317.386 119.081 317.337 120.125 316.094C121.965 313.956 121.617 312.911 118.683 311.817C117.44 311.32 117.291 311.42 116.594 313.11Z" fill="black"/>
<path d="M125.046 316.84C124.748 318.63 124.847 319.028 125.792 319.824C126.389 320.321 127.234 320.719 127.632 320.719C128.278 320.719 129.77 317.984 129.77 316.791C129.77 316.194 128.527 315.498 126.687 315.05C125.444 314.752 125.344 314.901 125.046 316.84Z" fill="black"/>
<path d="M284.559 316.093C284.112 316.889 282.869 318.281 281.825 319.275C279.04 321.96 279.239 323.253 282.968 326.634C285.256 328.673 286.151 329.22 287.046 328.971C288.338 328.673 293.858 323.651 293.858 322.856C293.858 321.861 287.244 314.751 286.3 314.751C285.852 314.751 285.057 315.347 284.559 316.093Z" fill="black"/>
<path d="M133.598 318.58C132.603 322.26 132.752 322.757 135.189 323.354C136.73 323.752 137.675 322.558 137.725 320.37C137.725 319.277 137.426 318.58 136.78 318.232C135.288 317.487 133.846 317.636 133.598 318.58Z" fill="black"/>
<path d="M74.8272 319.474C73.1863 321.065 73.236 322.855 74.8769 324.148C76.6172 325.49 77.3133 325.441 78.8548 323.949C80.3465 322.457 80.1476 321.065 78.2581 319.325C76.6669 317.932 76.3189 317.932 74.8272 319.474Z" fill="black"/>
<path d="M142.053 321.71C141.605 323.848 142.053 324.643 143.942 324.991C146.031 325.389 146.478 325.091 146.876 323.152C147.274 321.063 146.478 320.218 144.191 320.218C142.5 320.218 142.301 320.367 142.053 321.71Z" fill="black"/>
<path d="M151.002 322.061C150.803 322.21 150.654 323.204 150.654 324.199C150.654 325.989 150.704 326.088 152.743 326.387C155.08 326.785 155.477 326.536 155.925 324.298C156.223 322.906 156.074 322.657 154.931 322.21C153.389 321.663 151.45 321.564 151.002 322.061Z" fill="black"/>
<path d="M159.556 324.046C158.512 326.83 159.257 327.676 162.887 327.676C164.677 327.676 165.324 327.029 165.672 325.04C165.97 323.449 165.871 323.4 162.44 323.052C160.252 322.853 160.003 322.902 159.556 324.046Z" fill="black"/>
<path d="M166.963 325.442C167.211 327.431 167.858 327.878 170.891 328.425C172.631 328.674 173.128 328.574 174.023 327.679C174.719 326.983 175.018 326.138 174.918 325.293C174.769 323.95 174.719 323.95 170.742 323.801L166.764 323.652L166.963 325.442Z" fill="black"/>
<path d="M464.253 235.4C448.253 235.4 436.32 230.933 428.453 222C420.586 212.933 416.653 200.067 416.653 183.4C416.653 147.133 432.786 129 465.053 129C470.253 129 475.653 129.8 481.253 131.4C486.853 132.867 491.253 134.533 494.453 136.4C494.053 148.8 492.786 157.6 490.653 162.8C488.253 163.467 486.32 163.8 484.853 163.8H481.453C480.786 163.8 479.986 163.733 479.053 163.6L474.053 141.6C469.653 141.2 467.12 141 466.453 141C456.853 141 449.186 143.933 443.453 149.8C437.853 155.667 435.053 165.533 435.053 179.4C435.053 193.267 437.186 203.8 441.453 211C445.853 218.2 454.253 221.8 466.653 221.8C472.52 221.8 481.72 219 494.253 213.4C496.786 216.867 498.12 219.933 498.253 222.6C491.453 226.6 484.786 229.733 478.253 232C471.72 234.267 467.053 235.4 464.253 235.4ZM557.189 223.4C568.389 223.4 575.922 219.933 579.789 213C583.789 205.933 585.789 195.933 585.789 183C585.789 162.467 581.256 149.6 572.189 144.4C568.456 142.267 563.189 141.2 556.389 141.2C549.722 141.2 543.389 142.6 537.389 145.4C532.056 155.667 529.389 167.6 529.389 181.2C529.389 194.267 531.122 204.333 534.589 211.4C538.589 219.4 546.122 223.4 557.189 223.4ZM510.989 183C510.989 166.067 514.856 152.867 522.589 143.4C530.322 133.8 542.256 129 558.389 129C574.522 129 586.189 133.4 593.389 142.2C600.589 150.867 604.189 163.733 604.189 180.8C604.189 197.867 600.322 211.267 592.589 221C584.989 230.733 573.389 235.6 557.789 235.6C542.189 235.6 530.456 231.067 522.589 222C514.856 212.933 510.989 199.933 510.989 183ZM635.206 220.2C639.873 222.2 645.54 223.2 652.206 223.2C659.006 223.2 664.34 221.933 668.206 219.4C672.073 216.867 674.006 213.4 674.006 209C674.006 204.6 672.206 200.933 668.606 198C665.006 195.067 660.606 192.467 655.406 190.2C650.206 187.933 645.006 185.533 639.806 183C634.606 180.467 630.206 177.133 626.606 173C623.006 168.867 621.206 164.067 621.206 158.6C621.206 149.4 624.273 142.2 630.406 137C636.54 131.667 645.006 129 655.806 129C666.74 129 677.006 131.467 686.606 136.4C686.74 137.733 686.806 141.333 686.806 147.2C686.806 152.933 686.206 157.867 685.006 162C681.806 163.067 678.006 163.6 673.606 163.6L667.006 143.2C664.073 141.733 660.073 141 655.006 141C650.073 141 646.14 142.333 643.206 145C640.273 147.533 638.806 150.8 638.806 154.8C638.806 158.667 640.606 162.067 644.206 165C647.94 167.933 652.406 170.6 657.606 173C662.806 175.267 668.006 177.733 673.206 180.4C678.406 182.933 682.806 186.333 686.406 190.6C690.14 194.733 692.006 199.533 692.006 205C692.006 214.6 688.273 222.133 680.806 227.6C673.473 232.933 664.406 235.6 653.606 235.6C647.74 235.6 641.473 234.667 634.806 232.8C628.14 230.8 622.54 228.267 618.006 225.2C618.006 216.267 618.806 208.333 620.406 201.4C623.473 200.867 627.606 200.6 632.806 200.6L635.206 220.2ZM806.036 151.4C806.569 155.667 806.836 160.6 806.836 166.2C806.836 171.8 806.303 189.533 805.236 219.4L822.036 221C822.036 224.733 820.903 228.733 818.636 233H772.636L772.036 226C778.169 223.867 784.169 222.267 790.036 221.2C789.236 185.733 788.503 166 787.836 162C787.303 158 786.369 154.667 785.036 152C783.703 149.2 781.636 147.267 778.836 146.2C776.036 145.133 771.769 144.6 766.036 144.6C760.436 144.6 753.036 146.733 743.836 151C743.036 181.4 742.503 204.2 742.236 219.4L759.036 221C759.036 224.733 757.903 228.733 755.636 233H709.636L709.036 226C715.169 223.867 721.169 222.267 727.036 221.2C726.903 211.6 726.569 198.067 726.036 180.6C725.503 163 725.169 151.467 725.036 146C717.703 145.6 711.836 144.8 707.436 143.6L708.236 133.2C715.436 131.2 725.903 130.2 739.636 130.2C741.503 133.533 742.703 137 743.236 140.6C749.103 137.533 754.903 134.867 760.636 132.6C766.369 130.2 769.969 129 771.436 129C786.236 129 796.569 133.533 802.436 142.6C808.569 139.267 814.903 136.2 821.436 133.4C828.103 130.467 832.103 129 833.436 129C845.569 129 854.636 132 860.636 138C866.769 143.867 869.836 153.533 869.836 167C869.836 171 869.303 188.467 868.236 219.4L885.036 221C885.036 224.733 883.903 228.733 881.636 233H835.636L835.036 226C841.169 223.867 847.169 222.267 853.036 221.2C852.503 200.133 852.036 184.2 851.636 173.4C851.236 162.6 849.703 155.133 847.036 151C844.369 146.733 839.036 144.6 831.036 144.6C823.036 144.6 814.703 146.867 806.036 151.4ZM930.192 112.4C926.726 113.2 923.326 113.6 919.992 113.6C916.792 113.6 913.592 113.4 910.392 113C909.592 109.267 909.192 105.533 909.192 101.8C909.192 97.9333 909.326 95.0667 909.592 93.2C912.526 92.5333 915.592 92.2 918.792 92.2C922.126 92.2 925.659 92.3333 929.392 92.6C930.192 96.0667 930.592 99.4667 930.592 102.8C930.592 106 930.459 109.2 930.192 112.4ZM893.792 133.4C905.126 131.4 913.926 130.4 920.192 130.4C926.459 130.4 930.459 130.533 932.192 130.8C932.192 134 931.792 137.533 930.992 141.4C930.192 145.267 929.726 147.133 929.592 147L927.792 219.4L944.592 221C944.592 224.733 943.459 228.733 941.192 233H895.192L894.592 226C900.726 223.867 906.726 222.267 912.592 221.2C911.792 187.867 911.126 162.867 910.592 146.2C902.859 146.2 896.992 145.4 892.992 143.8L893.792 133.4ZM1003.32 235.4C987.316 235.4 975.382 230.933 967.516 222C959.649 212.933 955.716 200.067 955.716 183.4C955.716 147.133 971.849 129 1004.12 129C1009.32 129 1014.72 129.8 1020.32 131.4C1025.92 132.867 1030.32 134.533 1033.52 136.4C1033.12 148.8 1031.85 157.6 1029.72 162.8C1027.32 163.467 1025.38 163.8 1023.92 163.8H1020.52C1019.85 163.8 1019.05 163.733 1018.12 163.6L1013.12 141.6C1008.72 141.2 1006.18 141 1005.52 141C995.916 141 988.249 143.933 982.516 149.8C976.916 155.667 974.116 165.533 974.116 179.4C974.116 193.267 976.249 203.8 980.516 211C984.916 218.2 993.316 221.8 1005.72 221.8C1011.58 221.8 1020.78 219 1033.32 213.4C1035.85 216.867 1037.18 219.933 1037.32 222.6C1030.52 226.6 1023.85 229.733 1017.32 232C1010.78 234.267 1006.12 235.4 1003.32 235.4ZM1138 112.4C1134.54 113.2 1131.14 113.6 1127.8 113.6C1124.6 113.6 1121.4 113.4 1118.2 113C1117.4 109.267 1117 105.533 1117 101.8C1117 97.9333 1117.14 95.0667 1117.4 93.2C1120.34 92.5333 1123.4 92.2 1126.6 92.2C1129.94 92.2 1133.47 92.3333 1137.2 92.6C1138 96.0667 1138.4 99.4667 1138.4 102.8C1138.4 106 1138.27 109.2 1138 112.4ZM1101.6 133.4C1112.94 131.4 1121.74 130.4 1128 130.4C1134.27 130.4 1138.27 130.533 1140 130.8C1140 134 1139.6 137.533 1138.8 141.4C1138 145.267 1137.54 147.133 1137.4 147L1135.6 219.4L1152.4 221C1152.4 224.733 1151.27 228.733 1149 233H1103L1102.4 226C1108.54 223.867 1114.54 222.267 1120.4 221.2C1119.6 187.867 1118.94 162.867 1118.4 146.2C1110.67 146.2 1104.8 145.4 1100.8 143.8L1101.6 133.4ZM1225.93 129C1238.73 129 1247.99 132.2 1253.73 138.6C1259.46 144.867 1262.33 154.467 1262.33 167.4C1262.33 171.133 1261.79 188.467 1260.73 219.4L1277.53 221C1277.53 224.733 1276.39 228.733 1274.13 233H1228.13L1227.53 226C1233.66 223.867 1239.66 222.267 1245.53 221.2C1244.73 186.267 1243.99 166.867 1243.33 163C1242.79 159 1241.86 155.533 1240.53 152.6C1239.19 149.667 1237.19 147.6 1234.53 146.4C1231.86 145.2 1228.33 144.6 1223.93 144.6C1215.13 144.6 1206.59 146.733 1198.33 151C1197.53 181.4 1196.99 204.2 1196.73 219.4L1213.53 221C1213.53 224.733 1212.39 228.733 1210.13 233H1164.13L1163.53 226C1169.66 223.867 1175.66 222.267 1181.53 221.2C1180.73 187.333 1180.06 162.267 1179.53 146C1172.19 145.6 1166.33 144.8 1161.93 143.6L1162.73 133.2C1169.93 131.2 1180.39 130.2 1194.13 130.2C1195.73 132.6 1196.93 136.067 1197.73 140.6C1203.46 137.533 1209.19 134.867 1214.93 132.6C1220.79 130.2 1224.46 129 1225.93 129ZM1303.37 220.2C1308.04 222.2 1313.7 223.2 1320.37 223.2C1327.17 223.2 1332.5 221.933 1336.37 219.4C1340.24 216.867 1342.17 213.4 1342.17 209C1342.17 204.6 1340.37 200.933 1336.77 198C1333.17 195.067 1328.77 192.467 1323.57 190.2C1318.37 187.933 1313.17 185.533 1307.97 183C1302.77 180.467 1298.37 177.133 1294.77 173C1291.17 168.867 1289.37 164.067 1289.37 158.6C1289.37 149.4 1292.44 142.2 1298.57 137C1304.7 131.667 1313.17 129 1323.97 129C1334.9 129 1345.17 131.467 1354.77 136.4C1354.9 137.733 1354.97 141.333 1354.97 147.2C1354.97 152.933 1354.37 157.867 1353.17 162C1349.97 163.067 1346.17 163.6 1341.77 163.6L1335.17 143.2C1332.24 141.733 1328.24 141 1323.17 141C1318.24 141 1314.3 142.333 1311.37 145C1308.44 147.533 1306.97 150.8 1306.97 154.8C1306.97 158.667 1308.77 162.067 1312.37 165C1316.1 167.933 1320.57 170.6 1325.77 173C1330.97 175.267 1336.17 177.733 1341.37 180.4C1346.57 182.933 1350.97 186.333 1354.57 190.6C1358.3 194.733 1360.17 199.533 1360.17 205C1360.17 214.6 1356.44 222.133 1348.97 227.6C1341.64 232.933 1332.57 235.6 1321.77 235.6C1315.9 235.6 1309.64 234.667 1302.97 232.8C1296.3 230.8 1290.7 228.267 1286.17 225.2C1286.17 216.267 1286.97 208.333 1288.57 201.4C1291.64 200.867 1295.77 200.6 1300.97 200.6L1303.37 220.2ZM1413.2 112.4C1409.73 113.2 1406.33 113.6 1403 113.6C1399.8 113.6 1396.6 113.4 1393.4 113C1392.6 109.267 1392.2 105.533 1392.2 101.8C1392.2 97.9333 1392.33 95.0667 1392.6 93.2C1395.53 92.5333 1398.6 92.2 1401.8 92.2C1405.13 92.2 1408.67 92.3333 1412.4 92.6C1413.2 96.0667 1413.6 99.4667 1413.6 102.8C1413.6 106 1413.47 109.2 1413.2 112.4ZM1376.8 133.4C1388.13 131.4 1396.93 130.4 1403.2 130.4C1409.47 130.4 1413.47 130.533 1415.2 130.8C1415.2 134 1414.8 137.533 1414 141.4C1413.2 145.267 1412.73 147.133 1412.6 147L1410.8 219.4L1427.6 221C1427.6 224.733 1426.47 228.733 1424.2 233H1378.2L1377.6 226C1383.73 223.867 1389.73 222.267 1395.6 221.2C1394.8 187.867 1394.13 162.867 1393.6 146.2C1385.87 146.2 1380 145.4 1376 143.8L1376.8 133.4ZM1491.52 220.8L1509.32 220.4C1527.72 220.4 1536.92 228 1536.92 243.2C1536.92 250.267 1533.86 256.8 1527.72 262.8C1521.72 268.933 1514.52 273.533 1506.12 276.6C1497.72 279.667 1489.86 281.2 1482.52 281.2C1475.32 281.2 1468.59 280.133 1462.32 278C1456.06 276 1450.72 272.667 1446.32 268C1441.92 263.333 1439.72 257.933 1439.72 251.8C1439.72 250.333 1442.06 246.467 1446.72 240.2C1451.52 234.067 1454.66 230.467 1456.12 229.4C1454.92 228.6 1452.59 226.333 1449.12 222.6C1445.66 218.733 1443.72 216.067 1443.32 214.6C1446.66 208.467 1451.92 202.467 1459.12 196.6C1448.46 190.2 1443.12 179.667 1443.12 165C1443.12 153.267 1446.86 144.333 1454.32 138.2C1461.79 132.067 1471.12 129 1482.32 129C1493.52 129 1502.19 130.8 1508.32 134.4C1518.99 132.267 1529.46 131.2 1539.72 131.2C1542.26 131.2 1543.52 132.733 1543.52 135.8C1543.52 141.133 1542.52 144.8 1540.52 146.8L1517.52 143C1522.32 149.133 1524.72 156.467 1524.72 165C1524.72 178.333 1520.79 187.933 1512.92 193.8C1505.06 199.533 1495.39 202.4 1483.92 202.4C1480.32 202.4 1476.06 201.933 1471.12 201C1469.12 205.133 1466.59 209.6 1463.52 214.4C1465.92 218.667 1475.26 220.8 1491.52 220.8ZM1516.92 257.6C1518.26 253.867 1518.92 250 1518.92 246C1518.92 242.133 1517.39 239 1514.32 236.6C1511.26 234.2 1507.32 233 1502.52 233C1483.46 233 1471.79 232.8 1467.52 232.4C1463.92 238.133 1461.39 242.933 1459.92 246.8C1458.59 250.8 1457.92 253.067 1457.92 253.6C1457.92 258.8 1460.39 262.667 1465.32 265.2C1470.26 267.733 1475.92 269 1482.32 269C1488.86 269 1495.39 267.933 1501.92 265.8C1508.59 263.667 1513.59 260.933 1516.92 257.6ZM1506.72 165.8C1506.72 149.267 1499.12 141 1483.92 141C1468.72 141 1461.12 149 1461.12 165C1461.12 173.133 1463.12 179.4 1467.12 183.8C1471.12 188.2 1476.92 190.4 1484.52 190.4C1499.32 190.4 1506.72 182.2 1506.72 165.8ZM1582.35 84.4C1586.48 84.4 1589.42 84.5333 1591.15 84.8C1591.15 87.2 1590.75 90.3333 1589.95 94.2C1589.28 97.9333 1588.82 100.133 1588.55 100.8C1588.55 103.733 1588.42 109.8 1588.15 119C1587.88 128.2 1587.75 135.333 1587.75 140.4C1593.48 137.333 1599.15 134.667 1604.75 132.4C1610.48 130.133 1614.08 129 1615.55 129C1628.35 129 1637.62 132.2 1643.35 138.6C1649.08 144.867 1651.95 154.467 1651.95 167.4C1651.95 171.133 1651.42 188.467 1650.35 219.4L1667.15 221C1667.15 224.733 1666.02 228.733 1663.75 233H1617.75L1617.15 226C1623.28 223.867 1629.28 222.267 1635.15 221.2C1634.35 186.267 1633.62 166.867 1632.95 163C1632.42 159 1631.48 155.533 1630.15 152.6C1628.82 149.667 1626.82 147.6 1624.15 146.4C1621.48 145.2 1617.95 144.6 1613.55 144.6C1604.48 144.6 1595.82 146.733 1587.55 151L1586.35 219.4L1603.15 221C1603.15 224.733 1602.02 228.733 1599.75 233H1553.75L1553.15 226C1559.28 223.867 1565.28 222.267 1571.15 221.2L1568.75 100.2C1561.42 99.8 1555.55 99 1551.15 97.8L1551.95 87.4C1558.75 85.4 1568.88 84.4 1582.35 84.4ZM1692.59 220.6L1690.99 145.2H1675.59L1674.99 138.2C1676.32 137.267 1680.19 135.533 1686.59 133L1702.99 107.4C1705.65 107.667 1707.72 108.333 1709.19 109.4L1708.99 131.4C1718.99 131.4 1727.19 132.067 1733.59 133.4C1733.59 137 1732.45 140.933 1730.19 145.2H1708.59C1708.32 161.2 1708.05 185.467 1707.79 218C1715.25 218.4 1722.72 219.733 1730.19 222L1729.99 229C1728.12 230.2 1723.32 231.6 1715.59 233.2C1707.99 234.8 1701.72 235.6 1696.79 235.6C1696.12 234.533 1695.25 232.267 1694.19 228.8C1693.12 225.2 1692.59 222.467 1692.59 220.6ZM1763.92 220.2C1768.58 222.2 1774.25 223.2 1780.92 223.2C1787.72 223.2 1793.05 221.933 1796.92 219.4C1800.78 216.867 1802.72 213.4 1802.72 209C1802.72 204.6 1800.92 200.933 1797.32 198C1793.72 195.067 1789.32 192.467 1784.12 190.2C1778.92 187.933 1773.72 185.533 1768.52 183C1763.32 180.467 1758.92 177.133 1755.32 173C1751.72 168.867 1749.92 164.067 1749.92 158.6C1749.92 149.4 1752.98 142.2 1759.12 137C1765.25 131.667 1773.72 129 1784.52 129C1795.45 129 1805.72 131.467 1815.32 136.4C1815.45 137.733 1815.52 141.333 1815.52 147.2C1815.52 152.933 1814.92 157.867 1813.72 162C1810.52 163.067 1806.72 163.6 1802.32 163.6L1795.72 143.2C1792.78 141.733 1788.78 141 1783.72 141C1778.78 141 1774.85 142.333 1771.92 145C1768.98 147.533 1767.52 150.8 1767.52 154.8C1767.52 158.667 1769.32 162.067 1772.92 165C1776.65 167.933 1781.12 170.6 1786.32 173C1791.52 175.267 1796.72 177.733 1801.92 180.4C1807.12 182.933 1811.52 186.333 1815.12 190.6C1818.85 194.733 1820.72 199.533 1820.72 205C1820.72 214.6 1816.98 222.133 1809.52 227.6C1802.18 232.933 1793.12 235.6 1782.32 235.6C1776.45 235.6 1770.18 234.667 1763.52 232.8C1756.85 230.8 1751.25 228.267 1746.72 225.2C1746.72 216.267 1747.52 208.333 1749.12 201.4C1752.18 200.867 1756.32 200.6 1761.52 200.6L1763.92 220.2Z" fill="black"/>
</svg>
